%TF.GenerationSoftware,KiCad,Pcbnew,(5.99.0-11640-gb6664eecf2)*%
%TF.CreationDate,2021-09-02T00:48:37+05:30*%
%TF.ProjectId,AudioInterface,41756469-6f49-46e7-9465-72666163652e,rev?*%
%TF.SameCoordinates,Original*%
%TF.FileFunction,Soldermask,Top*%
%TF.FilePolarity,Negative*%
%FSLAX46Y46*%
G04 Gerber Fmt 4.6, Leading zero omitted, Abs format (unit mm)*
G04 Created by KiCad (PCBNEW (5.99.0-11640-gb6664eecf2)) date 2021-09-02 00:48:37*
%MOMM*%
%LPD*%
G01*
G04 APERTURE LIST*
G04 Aperture macros list*
%AMRoundRect*
0 Rectangle with rounded corners*
0 $1 Rounding radius*
0 $2 $3 $4 $5 $6 $7 $8 $9 X,Y pos of 4 corners*
0 Add a 4 corners polygon primitive as box body*
4,1,4,$2,$3,$4,$5,$6,$7,$8,$9,$2,$3,0*
0 Add four circle primitives for the rounded corners*
1,1,$1+$1,$2,$3*
1,1,$1+$1,$4,$5*
1,1,$1+$1,$6,$7*
1,1,$1+$1,$8,$9*
0 Add four rect primitives between the rounded corners*
20,1,$1+$1,$2,$3,$4,$5,0*
20,1,$1+$1,$4,$5,$6,$7,0*
20,1,$1+$1,$6,$7,$8,$9,0*
20,1,$1+$1,$8,$9,$2,$3,0*%
G04 Aperture macros list end*
%ADD10C,2.240000*%
%ADD11RoundRect,0.120000X-0.850000X-0.850000X0.850000X-0.850000X0.850000X0.850000X-0.850000X0.850000X0*%
%ADD12O,1.940000X1.940000*%
%ADD13C,2.340000*%
%ADD14C,1.840000*%
%ADD15RoundRect,0.120000X-0.875000X-0.225000X0.875000X-0.225000X0.875000X0.225000X-0.875000X0.225000X0*%
%ADD16C,1.740000*%
%ADD17C,1.440000*%
%ADD18C,2.040000*%
%ADD19RoundRect,0.120000X0.200000X-0.780000X0.200000X0.780000X-0.200000X0.780000X-0.200000X-0.780000X0*%
%ADD20C,3.240000*%
%ADD21RoundRect,0.120000X0.600000X-0.600000X0.600000X0.600000X-0.600000X0.600000X-0.600000X-0.600000X0*%
%ADD22RoundRect,0.120000X-0.600000X0.600000X-0.600000X-0.600000X0.600000X-0.600000X0.600000X0.600000X0*%
G04 APERTURE END LIST*
D10*
%TO.C,J4*%
X153265000Y-57930000D03*
X153265000Y-52930000D03*
X149455000Y-57930000D03*
X149455000Y-52930000D03*
X145645000Y-52930000D03*
X145645000Y-57930000D03*
%TD*%
D11*
%TO.C,J8*%
X137162000Y-48990000D03*
D12*
X137162000Y-51530000D03*
X137162000Y-54070000D03*
X137162000Y-56610000D03*
X137162000Y-59150000D03*
X137162000Y-61690000D03*
X137162000Y-64230000D03*
X137162000Y-66770000D03*
%TD*%
D13*
%TO.C,J2*%
X192720000Y-88990000D03*
X176490000Y-88990000D03*
X192720000Y-95340000D03*
X176490000Y-95340000D03*
X192720000Y-82640000D03*
X176490000Y-82640000D03*
%TD*%
D14*
%TO.C,C12*%
X168308000Y-60674000D03*
X165808000Y-60674000D03*
%TD*%
%TO.C,C11*%
X158264000Y-60674000D03*
X160764000Y-60674000D03*
%TD*%
D15*
%TO.C,U1*%
X144738000Y-77023000D03*
X144738000Y-77673000D03*
X144738000Y-78323000D03*
X144738000Y-78973000D03*
X144738000Y-79623000D03*
X144738000Y-80273000D03*
X144738000Y-80923000D03*
X144738000Y-81573000D03*
X144738000Y-82223000D03*
X144738000Y-82873000D03*
X144738000Y-83523000D03*
X144738000Y-84173000D03*
X144738000Y-84823000D03*
X144738000Y-85473000D03*
X151938000Y-85473000D03*
X151938000Y-84823000D03*
X151938000Y-84173000D03*
X151938000Y-83523000D03*
X151938000Y-82873000D03*
X151938000Y-82223000D03*
X151938000Y-81573000D03*
X151938000Y-80923000D03*
X151938000Y-80273000D03*
X151938000Y-79623000D03*
X151938000Y-78973000D03*
X151938000Y-78323000D03*
X151938000Y-77673000D03*
X151938000Y-77023000D03*
%TD*%
D16*
%TO.C,Y1*%
X139448000Y-79687000D03*
X139448000Y-84587000D03*
%TD*%
D14*
%TO.C,C4*%
X139448000Y-70981000D03*
X139448000Y-73481000D03*
%TD*%
D13*
%TO.C,J5*%
X199250000Y-57780000D03*
X215480000Y-57780000D03*
X199250000Y-51430000D03*
X215480000Y-51430000D03*
X199250000Y-64130000D03*
X215480000Y-64130000D03*
%TD*%
D17*
%TO.C,J3*%
X168075000Y-95290000D03*
X163075000Y-90290000D03*
X158075000Y-95290000D03*
X158075000Y-97790000D03*
X168075000Y-97790000D03*
D18*
X158075000Y-90290000D03*
X160575000Y-90290000D03*
X163075000Y-95290000D03*
X168075000Y-90290000D03*
X165575000Y-90290000D03*
%TD*%
D19*
%TO.C,U3*%
X171615000Y-70406000D03*
X172265000Y-70406000D03*
X172925000Y-70406000D03*
X173575000Y-70406000D03*
X173575000Y-67706000D03*
X172925000Y-67706000D03*
X172265000Y-67706000D03*
X171615000Y-67706000D03*
%TD*%
D13*
%TO.C,J1*%
X215580000Y-88990000D03*
X199350000Y-88990000D03*
X215580000Y-95340000D03*
X199350000Y-95340000D03*
X215580000Y-82640000D03*
X199350000Y-82640000D03*
%TD*%
D14*
%TO.C,C1*%
X143142000Y-97123000D03*
X138142000Y-97123000D03*
%TD*%
D20*
%TO.C,RV1*%
X156562000Y-74599000D03*
X168562000Y-74599000D03*
D16*
X161562000Y-85599000D03*
X163562000Y-85599000D03*
X165562000Y-85599000D03*
X159562000Y-85599000D03*
X157562000Y-85599000D03*
X167562000Y-85599000D03*
%TD*%
D21*
%TO.C,C9*%
X145798000Y-72064600D03*
D17*
X145798000Y-70564600D03*
%TD*%
D14*
%TO.C,C3*%
X137162000Y-73481000D03*
X137162000Y-70981000D03*
%TD*%
D17*
%TO.C,J7*%
X168330000Y-49140000D03*
X158330000Y-51640000D03*
X168330000Y-51640000D03*
X163330000Y-56640000D03*
X158330000Y-49140000D03*
D18*
X168330000Y-56640000D03*
X165830000Y-56640000D03*
X163330000Y-51640000D03*
X158330000Y-56640000D03*
X160830000Y-56640000D03*
%TD*%
D22*
%TO.C,C8*%
X151132000Y-89923401D03*
D17*
X151132000Y-91423401D03*
%TD*%
D22*
%TO.C,C2*%
X139448000Y-90050401D03*
D17*
X139448000Y-91550401D03*
%TD*%
D13*
%TO.C,J6*%
X176390000Y-57780000D03*
X192620000Y-57780000D03*
X176390000Y-51430000D03*
X192620000Y-51430000D03*
X176390000Y-64130000D03*
X192620000Y-64130000D03*
%TD*%
D22*
%TO.C,C7*%
X145544000Y-89923401D03*
D17*
X145544000Y-91423401D03*
%TD*%
D14*
%TO.C,C5*%
X148826000Y-97123000D03*
X146326000Y-97123000D03*
%TD*%
%TO.C,C6*%
X154922000Y-97123000D03*
X152422000Y-97123000D03*
%TD*%
D21*
%TO.C,C10*%
X151386000Y-72064600D03*
D17*
X151386000Y-70564600D03*
%TD*%
D19*
%TO.C,U2*%
X171666000Y-81455000D03*
X172316000Y-81455000D03*
X172976000Y-81455000D03*
X173626000Y-81455000D03*
X173626000Y-78755000D03*
X172976000Y-78755000D03*
X172316000Y-78755000D03*
X171666000Y-78755000D03*
%TD*%
G36*
X139738459Y-90769401D02*
G01*
X139738459Y-90771401D01*
X139737492Y-90772249D01*
X139695834Y-90789504D01*
X139678895Y-90830399D01*
X139695908Y-90871473D01*
X139716233Y-90884321D01*
X139717162Y-90886092D01*
X139716094Y-90887783D01*
X139714493Y-90887896D01*
X139611954Y-90851384D01*
X139453012Y-90832432D01*
X139293823Y-90849163D01*
X139178429Y-90888446D01*
X139176467Y-90888058D01*
X139175822Y-90886165D01*
X139176464Y-90885050D01*
X139209606Y-90855934D01*
X139212464Y-90811763D01*
X139183126Y-90778368D01*
X139157262Y-90772349D01*
X139155801Y-90770982D01*
X139156255Y-90769034D01*
X139157715Y-90768401D01*
X139736727Y-90768401D01*
X139738459Y-90769401D01*
G37*
G36*
X145834459Y-90642401D02*
G01*
X145834459Y-90644401D01*
X145833492Y-90645249D01*
X145791834Y-90662504D01*
X145774895Y-90703399D01*
X145791908Y-90744473D01*
X145812233Y-90757321D01*
X145813162Y-90759092D01*
X145812094Y-90760783D01*
X145810493Y-90760896D01*
X145707954Y-90724384D01*
X145549012Y-90705432D01*
X145389823Y-90722163D01*
X145274429Y-90761446D01*
X145272467Y-90761058D01*
X145271822Y-90759165D01*
X145272464Y-90758050D01*
X145305606Y-90728934D01*
X145308464Y-90684763D01*
X145279126Y-90651368D01*
X145253262Y-90645349D01*
X145251801Y-90643982D01*
X145252255Y-90642034D01*
X145253715Y-90641401D01*
X145832727Y-90641401D01*
X145834459Y-90642401D01*
G37*
G36*
X151422459Y-90642401D02*
G01*
X151422459Y-90644401D01*
X151421492Y-90645249D01*
X151379834Y-90662504D01*
X151362895Y-90703399D01*
X151379908Y-90744473D01*
X151400233Y-90757321D01*
X151401162Y-90759092D01*
X151400094Y-90760783D01*
X151398493Y-90760896D01*
X151295954Y-90724384D01*
X151137012Y-90705432D01*
X150977823Y-90722163D01*
X150862429Y-90761446D01*
X150860467Y-90761058D01*
X150859822Y-90759165D01*
X150860464Y-90758050D01*
X150893606Y-90728934D01*
X150896464Y-90684763D01*
X150867126Y-90651368D01*
X150841262Y-90645349D01*
X150839801Y-90643982D01*
X150840255Y-90642034D01*
X150841715Y-90641401D01*
X151420727Y-90641401D01*
X151422459Y-90642401D01*
G37*
G36*
X173263637Y-80590988D02*
G01*
X173268446Y-80594201D01*
X173312502Y-80602964D01*
X173333386Y-80594313D01*
X173338363Y-80590988D01*
X173340359Y-80590857D01*
X173341470Y-80592520D01*
X173341137Y-80593762D01*
X173317019Y-80629857D01*
X173308000Y-80675199D01*
X173308000Y-82234801D01*
X173317019Y-82280143D01*
X173341137Y-82316238D01*
X173341268Y-82318234D01*
X173339605Y-82319345D01*
X173338363Y-82319012D01*
X173333554Y-82315799D01*
X173289498Y-82307036D01*
X173268614Y-82315687D01*
X173263637Y-82319012D01*
X173261641Y-82319143D01*
X173260530Y-82317480D01*
X173260863Y-82316238D01*
X173284981Y-82280143D01*
X173294000Y-82234801D01*
X173294000Y-80675199D01*
X173284981Y-80629857D01*
X173260863Y-80593762D01*
X173260732Y-80591766D01*
X173262395Y-80590655D01*
X173263637Y-80590988D01*
G37*
G36*
X172603637Y-80590988D02*
G01*
X172609394Y-80594835D01*
X172609779Y-80594258D01*
X172611572Y-80593373D01*
X172612553Y-80593706D01*
X172634719Y-80608516D01*
X172678351Y-80599835D01*
X172684711Y-80593475D01*
X172685014Y-80593226D01*
X172688362Y-80590989D01*
X172690358Y-80590858D01*
X172691469Y-80592521D01*
X172691136Y-80593763D01*
X172667019Y-80629857D01*
X172658000Y-80675199D01*
X172658000Y-82234801D01*
X172667019Y-82280143D01*
X172691137Y-82316238D01*
X172691268Y-82318234D01*
X172689605Y-82319345D01*
X172688363Y-82319012D01*
X172682606Y-82315165D01*
X172682221Y-82315742D01*
X172680428Y-82316627D01*
X172679447Y-82316294D01*
X172657281Y-82301484D01*
X172613649Y-82310165D01*
X172607289Y-82316525D01*
X172606986Y-82316774D01*
X172603638Y-82319011D01*
X172601642Y-82319142D01*
X172600531Y-82317479D01*
X172600864Y-82316237D01*
X172624981Y-82280143D01*
X172634000Y-82234801D01*
X172634000Y-80675199D01*
X172624981Y-80629857D01*
X172600863Y-80593762D01*
X172600732Y-80591766D01*
X172602395Y-80590655D01*
X172603637Y-80590988D01*
G37*
G36*
X171953637Y-80590988D02*
G01*
X171958446Y-80594201D01*
X172002502Y-80602964D01*
X172023386Y-80594313D01*
X172028363Y-80590988D01*
X172030359Y-80590857D01*
X172031470Y-80592520D01*
X172031137Y-80593762D01*
X172007019Y-80629857D01*
X171998000Y-80675199D01*
X171998000Y-82234801D01*
X172007019Y-82280143D01*
X172031137Y-82316238D01*
X172031268Y-82318234D01*
X172029605Y-82319345D01*
X172028363Y-82319012D01*
X172023554Y-82315799D01*
X171979498Y-82307036D01*
X171958614Y-82315687D01*
X171953637Y-82319012D01*
X171951641Y-82319143D01*
X171950530Y-82317480D01*
X171950863Y-82316238D01*
X171974981Y-82280143D01*
X171984000Y-82234801D01*
X171984000Y-80675199D01*
X171974981Y-80629857D01*
X171950863Y-80593762D01*
X171950732Y-80591766D01*
X171952395Y-80590655D01*
X171953637Y-80590988D01*
G37*
G36*
X173263637Y-77890988D02*
G01*
X173268446Y-77894201D01*
X173312502Y-77902964D01*
X173333386Y-77894313D01*
X173338363Y-77890988D01*
X173340359Y-77890857D01*
X173341470Y-77892520D01*
X173341137Y-77893762D01*
X173317019Y-77929857D01*
X173308000Y-77975199D01*
X173308000Y-79534801D01*
X173317019Y-79580143D01*
X173341137Y-79616238D01*
X173341268Y-79618234D01*
X173339605Y-79619345D01*
X173338363Y-79619012D01*
X173333554Y-79615799D01*
X173289498Y-79607036D01*
X173268614Y-79615687D01*
X173263637Y-79619012D01*
X173261641Y-79619143D01*
X173260530Y-79617480D01*
X173260863Y-79616238D01*
X173284981Y-79580143D01*
X173294000Y-79534801D01*
X173294000Y-77975199D01*
X173284981Y-77929857D01*
X173260863Y-77893762D01*
X173260732Y-77891766D01*
X173262395Y-77890655D01*
X173263637Y-77890988D01*
G37*
G36*
X171953637Y-77890988D02*
G01*
X171958446Y-77894201D01*
X172002502Y-77902964D01*
X172023386Y-77894313D01*
X172028363Y-77890988D01*
X172030359Y-77890857D01*
X172031470Y-77892520D01*
X172031137Y-77893762D01*
X172007019Y-77929857D01*
X171998000Y-77975199D01*
X171998000Y-79534801D01*
X172007019Y-79580143D01*
X172031137Y-79616238D01*
X172031268Y-79618234D01*
X172029605Y-79619345D01*
X172028363Y-79619012D01*
X172023554Y-79615799D01*
X171979498Y-79607036D01*
X171958614Y-79615687D01*
X171953637Y-79619012D01*
X171951641Y-79619143D01*
X171950530Y-79617480D01*
X171950863Y-79616238D01*
X171974981Y-79580143D01*
X171984000Y-79534801D01*
X171984000Y-77975199D01*
X171974981Y-77929857D01*
X171950863Y-77893762D01*
X171950732Y-77891766D01*
X171952395Y-77890655D01*
X171953637Y-77890988D01*
G37*
G36*
X172603637Y-77890988D02*
G01*
X172609394Y-77894835D01*
X172609779Y-77894258D01*
X172611572Y-77893373D01*
X172612553Y-77893706D01*
X172634719Y-77908516D01*
X172678351Y-77899835D01*
X172684711Y-77893475D01*
X172685014Y-77893226D01*
X172688362Y-77890989D01*
X172690358Y-77890858D01*
X172691469Y-77892521D01*
X172691136Y-77893763D01*
X172667019Y-77929857D01*
X172658000Y-77975199D01*
X172658000Y-79534801D01*
X172667019Y-79580143D01*
X172691137Y-79616238D01*
X172691268Y-79618234D01*
X172689605Y-79619345D01*
X172688363Y-79619012D01*
X172682606Y-79615165D01*
X172682221Y-79615742D01*
X172680428Y-79616627D01*
X172679447Y-79616294D01*
X172657281Y-79601484D01*
X172613649Y-79610165D01*
X172607289Y-79616525D01*
X172606986Y-79616774D01*
X172603638Y-79619011D01*
X172601642Y-79619142D01*
X172600531Y-79617479D01*
X172600864Y-79616237D01*
X172624981Y-79580143D01*
X172634000Y-79534801D01*
X172634000Y-77975199D01*
X172624981Y-77929857D01*
X172600863Y-77893762D01*
X172600732Y-77891766D01*
X172602395Y-77890655D01*
X172603637Y-77890988D01*
G37*
G36*
X151660518Y-71226687D02*
G01*
X151661136Y-71228589D01*
X151660479Y-71229694D01*
X151626932Y-71258345D01*
X151623460Y-71302473D01*
X151652323Y-71336268D01*
X151678930Y-71342655D01*
X151680381Y-71344032D01*
X151679914Y-71345977D01*
X151678463Y-71346600D01*
X151098275Y-71346600D01*
X151096543Y-71345600D01*
X151096543Y-71343600D01*
X151097510Y-71342752D01*
X151139168Y-71325497D01*
X151156107Y-71284602D01*
X151139091Y-71243520D01*
X151119583Y-71230997D01*
X151118665Y-71229220D01*
X151119746Y-71227537D01*
X151121360Y-71227439D01*
X151212306Y-71261261D01*
X151370961Y-71282430D01*
X151530373Y-71267922D01*
X151658562Y-71226271D01*
X151660518Y-71226687D01*
G37*
G36*
X146072518Y-71226687D02*
G01*
X146073136Y-71228589D01*
X146072479Y-71229694D01*
X146038932Y-71258345D01*
X146035460Y-71302473D01*
X146064323Y-71336268D01*
X146090930Y-71342655D01*
X146092381Y-71344032D01*
X146091914Y-71345977D01*
X146090463Y-71346600D01*
X145510275Y-71346600D01*
X145508543Y-71345600D01*
X145508543Y-71343600D01*
X145509510Y-71342752D01*
X145551168Y-71325497D01*
X145568107Y-71284602D01*
X145551091Y-71243520D01*
X145531583Y-71230997D01*
X145530665Y-71229220D01*
X145531746Y-71227537D01*
X145533360Y-71227439D01*
X145624306Y-71261261D01*
X145782961Y-71282430D01*
X145942373Y-71267922D01*
X146070562Y-71226271D01*
X146072518Y-71226687D01*
G37*
G36*
X171902637Y-69541988D02*
G01*
X171907446Y-69545201D01*
X171951502Y-69553964D01*
X171972386Y-69545313D01*
X171977363Y-69541988D01*
X171979359Y-69541857D01*
X171980470Y-69543520D01*
X171980137Y-69544762D01*
X171956019Y-69580857D01*
X171947000Y-69626199D01*
X171947000Y-71185801D01*
X171956019Y-71231143D01*
X171980137Y-71267238D01*
X171980268Y-71269234D01*
X171978605Y-71270345D01*
X171977363Y-71270012D01*
X171972554Y-71266799D01*
X171928498Y-71258036D01*
X171907614Y-71266687D01*
X171902637Y-71270012D01*
X171900641Y-71270143D01*
X171899530Y-71268480D01*
X171899863Y-71267238D01*
X171923981Y-71231143D01*
X171933000Y-71185801D01*
X171933000Y-69626199D01*
X171923981Y-69580857D01*
X171899863Y-69544762D01*
X171899732Y-69542766D01*
X171901395Y-69541655D01*
X171902637Y-69541988D01*
G37*
G36*
X173212637Y-69541988D02*
G01*
X173217446Y-69545201D01*
X173261502Y-69553964D01*
X173282386Y-69545313D01*
X173287363Y-69541988D01*
X173289359Y-69541857D01*
X173290470Y-69543520D01*
X173290137Y-69544762D01*
X173266019Y-69580857D01*
X173257000Y-69626199D01*
X173257000Y-71185801D01*
X173266019Y-71231143D01*
X173290137Y-71267238D01*
X173290268Y-71269234D01*
X173288605Y-71270345D01*
X173287363Y-71270012D01*
X173282554Y-71266799D01*
X173238498Y-71258036D01*
X173217614Y-71266687D01*
X173212637Y-71270012D01*
X173210641Y-71270143D01*
X173209530Y-71268480D01*
X173209863Y-71267238D01*
X173233981Y-71231143D01*
X173243000Y-71185801D01*
X173243000Y-69626199D01*
X173233981Y-69580857D01*
X173209863Y-69544762D01*
X173209732Y-69542766D01*
X173211395Y-69541655D01*
X173212637Y-69541988D01*
G37*
G36*
X172552637Y-69541988D02*
G01*
X172558394Y-69545835D01*
X172558779Y-69545258D01*
X172560572Y-69544373D01*
X172561553Y-69544706D01*
X172583719Y-69559516D01*
X172627351Y-69550835D01*
X172633711Y-69544475D01*
X172634014Y-69544226D01*
X172637362Y-69541989D01*
X172639358Y-69541858D01*
X172640469Y-69543521D01*
X172640136Y-69544763D01*
X172616019Y-69580857D01*
X172607000Y-69626199D01*
X172607000Y-71185801D01*
X172616019Y-71231143D01*
X172640137Y-71267238D01*
X172640268Y-71269234D01*
X172638605Y-71270345D01*
X172637363Y-71270012D01*
X172631606Y-71266165D01*
X172631221Y-71266742D01*
X172629428Y-71267627D01*
X172628447Y-71267294D01*
X172606281Y-71252484D01*
X172562649Y-71261165D01*
X172556289Y-71267525D01*
X172555986Y-71267774D01*
X172552638Y-71270011D01*
X172550642Y-71270142D01*
X172549531Y-71268479D01*
X172549864Y-71267237D01*
X172573981Y-71231143D01*
X172583000Y-71185801D01*
X172583000Y-69626199D01*
X172573981Y-69580857D01*
X172549863Y-69544762D01*
X172549732Y-69542766D01*
X172551395Y-69541655D01*
X172552637Y-69541988D01*
G37*
G36*
X171902637Y-66841988D02*
G01*
X171907446Y-66845201D01*
X171951502Y-66853964D01*
X171972386Y-66845313D01*
X171977363Y-66841988D01*
X171979359Y-66841857D01*
X171980470Y-66843520D01*
X171980137Y-66844762D01*
X171956019Y-66880857D01*
X171947000Y-66926199D01*
X171947000Y-68485801D01*
X171956019Y-68531143D01*
X171980137Y-68567238D01*
X171980268Y-68569234D01*
X171978605Y-68570345D01*
X171977363Y-68570012D01*
X171972554Y-68566799D01*
X171928498Y-68558036D01*
X171907614Y-68566687D01*
X171902637Y-68570012D01*
X171900641Y-68570143D01*
X171899530Y-68568480D01*
X171899863Y-68567238D01*
X171923981Y-68531143D01*
X171933000Y-68485801D01*
X171933000Y-66926199D01*
X171923981Y-66880857D01*
X171899863Y-66844762D01*
X171899732Y-66842766D01*
X171901395Y-66841655D01*
X171902637Y-66841988D01*
G37*
G36*
X173212637Y-66841988D02*
G01*
X173217446Y-66845201D01*
X173261502Y-66853964D01*
X173282386Y-66845313D01*
X173287363Y-66841988D01*
X173289359Y-66841857D01*
X173290470Y-66843520D01*
X173290137Y-66844762D01*
X173266019Y-66880857D01*
X173257000Y-66926199D01*
X173257000Y-68485801D01*
X173266019Y-68531143D01*
X173290137Y-68567238D01*
X173290268Y-68569234D01*
X173288605Y-68570345D01*
X173287363Y-68570012D01*
X173282554Y-68566799D01*
X173238498Y-68558036D01*
X173217614Y-68566687D01*
X173212637Y-68570012D01*
X173210641Y-68570143D01*
X173209530Y-68568480D01*
X173209863Y-68567238D01*
X173233981Y-68531143D01*
X173243000Y-68485801D01*
X173243000Y-66926199D01*
X173233981Y-66880857D01*
X173209863Y-66844762D01*
X173209732Y-66842766D01*
X173211395Y-66841655D01*
X173212637Y-66841988D01*
G37*
G36*
X172552637Y-66841988D02*
G01*
X172558394Y-66845835D01*
X172558779Y-66845258D01*
X172560572Y-66844373D01*
X172561553Y-66844706D01*
X172583719Y-66859516D01*
X172627351Y-66850835D01*
X172633711Y-66844475D01*
X172634014Y-66844226D01*
X172637362Y-66841989D01*
X172639358Y-66841858D01*
X172640469Y-66843521D01*
X172640136Y-66844763D01*
X172616019Y-66880857D01*
X172607000Y-66926199D01*
X172607000Y-68485801D01*
X172616019Y-68531143D01*
X172640137Y-68567238D01*
X172640268Y-68569234D01*
X172638605Y-68570345D01*
X172637363Y-68570012D01*
X172631606Y-68566165D01*
X172631221Y-68566742D01*
X172629428Y-68567627D01*
X172628447Y-68567294D01*
X172606281Y-68552484D01*
X172562649Y-68561165D01*
X172556289Y-68567525D01*
X172555986Y-68567774D01*
X172552638Y-68570011D01*
X172550642Y-68570142D01*
X172549531Y-68568479D01*
X172549864Y-68567237D01*
X172573981Y-68531143D01*
X172583000Y-68485801D01*
X172583000Y-66926199D01*
X172573981Y-66880857D01*
X172549863Y-66844762D01*
X172549732Y-66842766D01*
X172551395Y-66841655D01*
X172552637Y-66841988D01*
G37*
M02*
