M48
; DRILL file {KiCad (5.99.0-11640-gb6664eecf2)} date Thu Sep  2 00:48:50 2021
; FORMAT={-:-/ absolute / inch / decimal}
; #@! TF.CreationDate,2021-09-02T00:48:50+05:30
; #@! TF.GenerationSoftware,Kicad,Pcbnew,(5.99.0-11640-gb6664eecf2)
; #@! TF.FileFunction,Plated,1,2,PTH
FMAT,2
INCH
; #@! TA.AperFunction,Plated,PTH,ViaDrill
T1C0.0157
; #@! TA.AperFunction,Plated,PTH,ComponentDrill
T2C0.0236
; #@! TA.AperFunction,Plated,PTH,ComponentDrill
T3C0.0315
; #@! TA.AperFunction,Plated,PTH,ComponentDrill
T4C0.0394
; #@! TA.AperFunction,Plated,PTH,ComponentDrill
T5C0.0472
; #@! TA.AperFunction,Plated,PTH,ComponentDrill
T6C0.0551
; #@! TA.AperFunction,Plated,PTH,ComponentDrill
T7C0.0866
%
G90
G05
T1
X5.7401Y-2.6637
X5.7401Y-2.7037
X5.8001Y-3.2187
X5.8401Y-2.5587
X5.8601Y-3.3987
X5.8701Y-3.0937
X5.8701Y-3.1637
X5.8801Y-3.2337
X6.0701Y-3.1337
X6.1251Y-2.7187
X6.1501Y-3.0837
X6.2101Y-2.8137
X6.2401Y-3.0937
X6.2401Y-3.2187
X6.2601Y-2.8537
X6.5601Y-3.2187
X6.6171Y-2.5937
X6.6801Y-3.2037
X6.7171Y-3.0287
X6.8201Y-2.5787
X6.9021Y-3.1587
X6.9321Y-2.7637
X7.1001Y-2.5687
X7.2101Y-3.2084
X7.2101Y-3.2887
X7.3201Y-2.4887
X7.3351Y-3.2084
X8.0341Y-2.6559
X8.0341Y-2.7059
X8.1051Y-3.2887
T2
X5.4901Y-3.5453
X5.4901Y-3.6043
X5.7301Y-3.5403
X5.7301Y-3.5993
X5.7401Y-2.7781
X5.7401Y-2.8372
X5.9501Y-3.5403
X5.9501Y-3.5993
X5.9601Y-2.7781
X5.9601Y-2.8372
T3
X5.4001Y-2.7945
X5.4001Y-2.893
X5.4387Y-3.8237
X5.4901Y-2.7945
X5.4901Y-2.893
X5.4901Y-3.1373
X5.4901Y-3.3302
X5.6355Y-3.8237
X5.7609Y-3.8237
X5.8593Y-3.8237
X6.0009Y-3.8237
X6.0993Y-3.8237
X6.2309Y-2.3887
X6.3293Y-2.3887
X6.5279Y-2.3887
X6.6263Y-2.3887
T4
X5.4001Y-1.9287
X5.4001Y-2.0287
X5.4001Y-2.1287
X5.4001Y-2.2287
X5.4001Y-2.3287
X5.4001Y-2.4287
X5.4001Y-2.5287
X5.4001Y-2.6287
X6.2032Y-3.37
X6.282Y-3.37
X6.3607Y-3.37
X6.4394Y-3.37
X6.5182Y-3.37
X6.5969Y-3.37
T5
X6.2234Y-3.5547
X6.2335Y-2.2299
X6.3219Y-3.5547
X6.3319Y-2.2299
X6.4203Y-3.7516
X6.4303Y-2.0331
X6.5187Y-3.5547
X6.5287Y-2.2299
X6.6171Y-3.5547
X6.6272Y-2.2299
T6
X5.7341Y-2.0839
X5.7341Y-2.2807
X5.8841Y-2.0839
X5.8841Y-2.2807
X6.0341Y-2.0839
X6.0341Y-2.2807
X6.9445Y-2.0248
X6.9445Y-2.2748
X6.9445Y-2.5248
X6.9484Y-3.2535
X6.9484Y-3.5035
X6.9484Y-3.7535
X7.5835Y-2.0248
X7.5835Y-2.2748
X7.5835Y-2.5248
X7.5874Y-3.2535
X7.5874Y-3.5035
X7.5874Y-3.7535
X7.8445Y-2.0248
X7.8445Y-2.2748
X7.8445Y-2.5248
X7.8484Y-3.2535
X7.8484Y-3.5035
X7.8484Y-3.7535
X8.4835Y-2.0248
X8.4835Y-2.2748
X8.4835Y-2.5248
X8.4874Y-3.2535
X8.4874Y-3.5035
X8.4874Y-3.7535
T7
X6.1639Y-2.937
X6.6363Y-2.937
T0
M30
