%TF.GenerationSoftware,KiCad,Pcbnew,(5.99.0-11640-gb6664eecf2)*%
%TF.CreationDate,2021-09-02T00:48:37+05:30*%
%TF.ProjectId,AudioInterface,41756469-6f49-46e7-9465-72666163652e,rev?*%
%TF.SameCoordinates,Original*%
%TF.FileFunction,Legend,Bot*%
%TF.FilePolarity,Positive*%
%FSLAX46Y46*%
G04 Gerber Fmt 4.6, Leading zero omitted, Abs format (unit mm)*
G04 Created by KiCad (PCBNEW (5.99.0-11640-gb6664eecf2)) date 2021-09-02 00:48:37*
%MOMM*%
%LPD*%
G01*
G04 APERTURE LIST*
%ADD10C,0.150000*%
%ADD11C,0.120000*%
G04 APERTURE END LIST*
D10*
%TO.C,R7*%
X165700666Y-77382380D02*
X166034000Y-76906190D01*
X166272095Y-77382380D02*
X166272095Y-76382380D01*
X165891142Y-76382380D01*
X165795904Y-76430000D01*
X165748285Y-76477619D01*
X165700666Y-76572857D01*
X165700666Y-76715714D01*
X165748285Y-76810952D01*
X165795904Y-76858571D01*
X165891142Y-76906190D01*
X166272095Y-76906190D01*
X165367333Y-76382380D02*
X164700666Y-76382380D01*
X165129238Y-77382380D01*
%TO.C,R6*%
X206035666Y-85764380D02*
X206369000Y-85288190D01*
X206607095Y-85764380D02*
X206607095Y-84764380D01*
X206226142Y-84764380D01*
X206130904Y-84812000D01*
X206083285Y-84859619D01*
X206035666Y-84954857D01*
X206035666Y-85097714D01*
X206083285Y-85192952D01*
X206130904Y-85240571D01*
X206226142Y-85288190D01*
X206607095Y-85288190D01*
X205178523Y-84764380D02*
X205369000Y-84764380D01*
X205464238Y-84812000D01*
X205511857Y-84859619D01*
X205607095Y-85002476D01*
X205654714Y-85192952D01*
X205654714Y-85573904D01*
X205607095Y-85669142D01*
X205559476Y-85716761D01*
X205464238Y-85764380D01*
X205273761Y-85764380D01*
X205178523Y-85716761D01*
X205130904Y-85669142D01*
X205083285Y-85573904D01*
X205083285Y-85335809D01*
X205130904Y-85240571D01*
X205178523Y-85192952D01*
X205273761Y-85145333D01*
X205464238Y-85145333D01*
X205559476Y-85192952D01*
X205607095Y-85240571D01*
X205654714Y-85335809D01*
%TO.C,R3*%
X165776666Y-68111380D02*
X166110000Y-67635190D01*
X166348095Y-68111380D02*
X166348095Y-67111380D01*
X165967142Y-67111380D01*
X165871904Y-67159000D01*
X165824285Y-67206619D01*
X165776666Y-67301857D01*
X165776666Y-67444714D01*
X165824285Y-67539952D01*
X165871904Y-67587571D01*
X165967142Y-67635190D01*
X166348095Y-67635190D01*
X165443333Y-67111380D02*
X164824285Y-67111380D01*
X165157619Y-67492333D01*
X165014761Y-67492333D01*
X164919523Y-67539952D01*
X164871904Y-67587571D01*
X164824285Y-67682809D01*
X164824285Y-67920904D01*
X164871904Y-68016142D01*
X164919523Y-68063761D01*
X165014761Y-68111380D01*
X165300476Y-68111380D01*
X165395714Y-68063761D01*
X165443333Y-68016142D01*
%TO.C,R12*%
X154378380Y-65619142D02*
X153902190Y-65285809D01*
X154378380Y-65047714D02*
X153378380Y-65047714D01*
X153378380Y-65428666D01*
X153426000Y-65523904D01*
X153473619Y-65571523D01*
X153568857Y-65619142D01*
X153711714Y-65619142D01*
X153806952Y-65571523D01*
X153854571Y-65523904D01*
X153902190Y-65428666D01*
X153902190Y-65047714D01*
X154378380Y-66571523D02*
X154378380Y-66000095D01*
X154378380Y-66285809D02*
X153378380Y-66285809D01*
X153521238Y-66190571D01*
X153616476Y-66095333D01*
X153664095Y-66000095D01*
X153473619Y-66952476D02*
X153426000Y-67000095D01*
X153378380Y-67095333D01*
X153378380Y-67333428D01*
X153426000Y-67428666D01*
X153473619Y-67476285D01*
X153568857Y-67523904D01*
X153664095Y-67523904D01*
X153806952Y-67476285D01*
X154378380Y-66904857D01*
X154378380Y-67523904D01*
%TO.C,R11*%
X148790380Y-65746142D02*
X148314190Y-65412809D01*
X148790380Y-65174714D02*
X147790380Y-65174714D01*
X147790380Y-65555666D01*
X147838000Y-65650904D01*
X147885619Y-65698523D01*
X147980857Y-65746142D01*
X148123714Y-65746142D01*
X148218952Y-65698523D01*
X148266571Y-65650904D01*
X148314190Y-65555666D01*
X148314190Y-65174714D01*
X148790380Y-66698523D02*
X148790380Y-66127095D01*
X148790380Y-66412809D02*
X147790380Y-66412809D01*
X147933238Y-66317571D01*
X148028476Y-66222333D01*
X148076095Y-66127095D01*
X148790380Y-67650904D02*
X148790380Y-67079476D01*
X148790380Y-67365190D02*
X147790380Y-67365190D01*
X147933238Y-67269952D01*
X148028476Y-67174714D01*
X148076095Y-67079476D01*
%TO.C,R14*%
X154378380Y-62698142D02*
X153902190Y-62364809D01*
X154378380Y-62126714D02*
X153378380Y-62126714D01*
X153378380Y-62507666D01*
X153426000Y-62602904D01*
X153473619Y-62650523D01*
X153568857Y-62698142D01*
X153711714Y-62698142D01*
X153806952Y-62650523D01*
X153854571Y-62602904D01*
X153902190Y-62507666D01*
X153902190Y-62126714D01*
X154378380Y-63650523D02*
X154378380Y-63079095D01*
X154378380Y-63364809D02*
X153378380Y-63364809D01*
X153521238Y-63269571D01*
X153616476Y-63174333D01*
X153664095Y-63079095D01*
X153711714Y-64507666D02*
X154378380Y-64507666D01*
X153330761Y-64269571D02*
X154045047Y-64031476D01*
X154045047Y-64650523D01*
%TO.C,R17*%
X209432857Y-67730380D02*
X209766190Y-67254190D01*
X210004285Y-67730380D02*
X210004285Y-66730380D01*
X209623333Y-66730380D01*
X209528095Y-66778000D01*
X209480476Y-66825619D01*
X209432857Y-66920857D01*
X209432857Y-67063714D01*
X209480476Y-67158952D01*
X209528095Y-67206571D01*
X209623333Y-67254190D01*
X210004285Y-67254190D01*
X208480476Y-67730380D02*
X209051904Y-67730380D01*
X208766190Y-67730380D02*
X208766190Y-66730380D01*
X208861428Y-66873238D01*
X208956666Y-66968476D01*
X209051904Y-67016095D01*
X208147142Y-66730380D02*
X207480476Y-66730380D01*
X207909047Y-67730380D01*
%TO.C,R4*%
X159680666Y-68111380D02*
X160014000Y-67635190D01*
X160252095Y-68111380D02*
X160252095Y-67111380D01*
X159871142Y-67111380D01*
X159775904Y-67159000D01*
X159728285Y-67206619D01*
X159680666Y-67301857D01*
X159680666Y-67444714D01*
X159728285Y-67539952D01*
X159775904Y-67587571D01*
X159871142Y-67635190D01*
X160252095Y-67635190D01*
X158823523Y-67444714D02*
X158823523Y-68111380D01*
X159061619Y-67063761D02*
X159299714Y-67778047D01*
X158680666Y-67778047D01*
%TO.C,R13*%
X148790380Y-62698142D02*
X148314190Y-62364809D01*
X148790380Y-62126714D02*
X147790380Y-62126714D01*
X147790380Y-62507666D01*
X147838000Y-62602904D01*
X147885619Y-62650523D01*
X147980857Y-62698142D01*
X148123714Y-62698142D01*
X148218952Y-62650523D01*
X148266571Y-62602904D01*
X148314190Y-62507666D01*
X148314190Y-62126714D01*
X148790380Y-63650523D02*
X148790380Y-63079095D01*
X148790380Y-63364809D02*
X147790380Y-63364809D01*
X147933238Y-63269571D01*
X148028476Y-63174333D01*
X148076095Y-63079095D01*
X147790380Y-63983857D02*
X147790380Y-64602904D01*
X148171333Y-64269571D01*
X148171333Y-64412428D01*
X148218952Y-64507666D01*
X148266571Y-64555285D01*
X148361809Y-64602904D01*
X148599904Y-64602904D01*
X148695142Y-64555285D01*
X148742761Y-64507666D01*
X148790380Y-64412428D01*
X148790380Y-64126714D01*
X148742761Y-64031476D01*
X148695142Y-63983857D01*
%TO.C,R9*%
X159604666Y-77382380D02*
X159938000Y-76906190D01*
X160176095Y-77382380D02*
X160176095Y-76382380D01*
X159795142Y-76382380D01*
X159699904Y-76430000D01*
X159652285Y-76477619D01*
X159604666Y-76572857D01*
X159604666Y-76715714D01*
X159652285Y-76810952D01*
X159699904Y-76858571D01*
X159795142Y-76906190D01*
X160176095Y-76906190D01*
X159128476Y-77382380D02*
X158938000Y-77382380D01*
X158842761Y-77334761D01*
X158795142Y-77287142D01*
X158699904Y-77144285D01*
X158652285Y-76953809D01*
X158652285Y-76572857D01*
X158699904Y-76477619D01*
X158747523Y-76430000D01*
X158842761Y-76382380D01*
X159033238Y-76382380D01*
X159128476Y-76430000D01*
X159176095Y-76477619D01*
X159223714Y-76572857D01*
X159223714Y-76810952D01*
X159176095Y-76906190D01*
X159128476Y-76953809D01*
X159033238Y-77001428D01*
X158842761Y-77001428D01*
X158747523Y-76953809D01*
X158699904Y-76906190D01*
X158652285Y-76810952D01*
%TO.C,R8*%
X165776666Y-84113380D02*
X166110000Y-83637190D01*
X166348095Y-84113380D02*
X166348095Y-83113380D01*
X165967142Y-83113380D01*
X165871904Y-83161000D01*
X165824285Y-83208619D01*
X165776666Y-83303857D01*
X165776666Y-83446714D01*
X165824285Y-83541952D01*
X165871904Y-83589571D01*
X165967142Y-83637190D01*
X166348095Y-83637190D01*
X165205238Y-83541952D02*
X165300476Y-83494333D01*
X165348095Y-83446714D01*
X165395714Y-83351476D01*
X165395714Y-83303857D01*
X165348095Y-83208619D01*
X165300476Y-83161000D01*
X165205238Y-83113380D01*
X165014761Y-83113380D01*
X164919523Y-83161000D01*
X164871904Y-83208619D01*
X164824285Y-83303857D01*
X164824285Y-83351476D01*
X164871904Y-83446714D01*
X164919523Y-83494333D01*
X165014761Y-83541952D01*
X165205238Y-83541952D01*
X165300476Y-83589571D01*
X165348095Y-83637190D01*
X165395714Y-83732428D01*
X165395714Y-83922904D01*
X165348095Y-84018142D01*
X165300476Y-84065761D01*
X165205238Y-84113380D01*
X165014761Y-84113380D01*
X164919523Y-84065761D01*
X164871904Y-84018142D01*
X164824285Y-83922904D01*
X164824285Y-83732428D01*
X164871904Y-83637190D01*
X164919523Y-83589571D01*
X165014761Y-83541952D01*
%TO.C,R5*%
X183302666Y-85764380D02*
X183636000Y-85288190D01*
X183874095Y-85764380D02*
X183874095Y-84764380D01*
X183493142Y-84764380D01*
X183397904Y-84812000D01*
X183350285Y-84859619D01*
X183302666Y-84954857D01*
X183302666Y-85097714D01*
X183350285Y-85192952D01*
X183397904Y-85240571D01*
X183493142Y-85288190D01*
X183874095Y-85288190D01*
X182397904Y-84764380D02*
X182874095Y-84764380D01*
X182921714Y-85240571D01*
X182874095Y-85192952D01*
X182778857Y-85145333D01*
X182540761Y-85145333D01*
X182445523Y-85192952D01*
X182397904Y-85240571D01*
X182350285Y-85335809D01*
X182350285Y-85573904D01*
X182397904Y-85669142D01*
X182445523Y-85716761D01*
X182540761Y-85764380D01*
X182778857Y-85764380D01*
X182874095Y-85716761D01*
X182921714Y-85669142D01*
%TO.C,R1*%
X209210666Y-85764380D02*
X209544000Y-85288190D01*
X209782095Y-85764380D02*
X209782095Y-84764380D01*
X209401142Y-84764380D01*
X209305904Y-84812000D01*
X209258285Y-84859619D01*
X209210666Y-84954857D01*
X209210666Y-85097714D01*
X209258285Y-85192952D01*
X209305904Y-85240571D01*
X209401142Y-85288190D01*
X209782095Y-85288190D01*
X208258285Y-85764380D02*
X208829714Y-85764380D01*
X208544000Y-85764380D02*
X208544000Y-84764380D01*
X208639238Y-84907238D01*
X208734476Y-85002476D01*
X208829714Y-85050095D01*
%TO.C,R15*%
X206384857Y-67730380D02*
X206718190Y-67254190D01*
X206956285Y-67730380D02*
X206956285Y-66730380D01*
X206575333Y-66730380D01*
X206480095Y-66778000D01*
X206432476Y-66825619D01*
X206384857Y-66920857D01*
X206384857Y-67063714D01*
X206432476Y-67158952D01*
X206480095Y-67206571D01*
X206575333Y-67254190D01*
X206956285Y-67254190D01*
X205432476Y-67730380D02*
X206003904Y-67730380D01*
X205718190Y-67730380D02*
X205718190Y-66730380D01*
X205813428Y-66873238D01*
X205908666Y-66968476D01*
X206003904Y-67016095D01*
X204527714Y-66730380D02*
X205003904Y-66730380D01*
X205051523Y-67206571D01*
X205003904Y-67158952D01*
X204908666Y-67111333D01*
X204670571Y-67111333D01*
X204575333Y-67158952D01*
X204527714Y-67206571D01*
X204480095Y-67301809D01*
X204480095Y-67539904D01*
X204527714Y-67635142D01*
X204575333Y-67682761D01*
X204670571Y-67730380D01*
X204908666Y-67730380D01*
X205003904Y-67682761D01*
X205051523Y-67635142D01*
%TO.C,R16*%
X186572857Y-67877380D02*
X186906190Y-67401190D01*
X187144285Y-67877380D02*
X187144285Y-66877380D01*
X186763333Y-66877380D01*
X186668095Y-66925000D01*
X186620476Y-66972619D01*
X186572857Y-67067857D01*
X186572857Y-67210714D01*
X186620476Y-67305952D01*
X186668095Y-67353571D01*
X186763333Y-67401190D01*
X187144285Y-67401190D01*
X185620476Y-67877380D02*
X186191904Y-67877380D01*
X185906190Y-67877380D02*
X185906190Y-66877380D01*
X186001428Y-67020238D01*
X186096666Y-67115476D01*
X186191904Y-67163095D01*
X184763333Y-66877380D02*
X184953809Y-66877380D01*
X185049047Y-66925000D01*
X185096666Y-66972619D01*
X185191904Y-67115476D01*
X185239523Y-67305952D01*
X185239523Y-67686904D01*
X185191904Y-67782142D01*
X185144285Y-67829761D01*
X185049047Y-67877380D01*
X184858571Y-67877380D01*
X184763333Y-67829761D01*
X184715714Y-67782142D01*
X184668095Y-67686904D01*
X184668095Y-67448809D01*
X184715714Y-67353571D01*
X184763333Y-67305952D01*
X184858571Y-67258333D01*
X185049047Y-67258333D01*
X185144285Y-67305952D01*
X185191904Y-67353571D01*
X185239523Y-67448809D01*
%TO.C,R18*%
X183524857Y-67857380D02*
X183858190Y-67381190D01*
X184096285Y-67857380D02*
X184096285Y-66857380D01*
X183715333Y-66857380D01*
X183620095Y-66905000D01*
X183572476Y-66952619D01*
X183524857Y-67047857D01*
X183524857Y-67190714D01*
X183572476Y-67285952D01*
X183620095Y-67333571D01*
X183715333Y-67381190D01*
X184096285Y-67381190D01*
X182572476Y-67857380D02*
X183143904Y-67857380D01*
X182858190Y-67857380D02*
X182858190Y-66857380D01*
X182953428Y-67000238D01*
X183048666Y-67095476D01*
X183143904Y-67143095D01*
X182001047Y-67285952D02*
X182096285Y-67238333D01*
X182143904Y-67190714D01*
X182191523Y-67095476D01*
X182191523Y-67047857D01*
X182143904Y-66952619D01*
X182096285Y-66905000D01*
X182001047Y-66857380D01*
X181810571Y-66857380D01*
X181715333Y-66905000D01*
X181667714Y-66952619D01*
X181620095Y-67047857D01*
X181620095Y-67095476D01*
X181667714Y-67190714D01*
X181715333Y-67238333D01*
X181810571Y-67285952D01*
X182001047Y-67285952D01*
X182096285Y-67333571D01*
X182143904Y-67381190D01*
X182191523Y-67476428D01*
X182191523Y-67666904D01*
X182143904Y-67762142D01*
X182096285Y-67809761D01*
X182001047Y-67857380D01*
X181810571Y-67857380D01*
X181715333Y-67809761D01*
X181667714Y-67762142D01*
X181620095Y-67666904D01*
X181620095Y-67476428D01*
X181667714Y-67381190D01*
X181715333Y-67333571D01*
X181810571Y-67285952D01*
%TO.C,R10*%
X160156857Y-83986380D02*
X160490190Y-83510190D01*
X160728285Y-83986380D02*
X160728285Y-82986380D01*
X160347333Y-82986380D01*
X160252095Y-83034000D01*
X160204476Y-83081619D01*
X160156857Y-83176857D01*
X160156857Y-83319714D01*
X160204476Y-83414952D01*
X160252095Y-83462571D01*
X160347333Y-83510190D01*
X160728285Y-83510190D01*
X159204476Y-83986380D02*
X159775904Y-83986380D01*
X159490190Y-83986380D02*
X159490190Y-82986380D01*
X159585428Y-83129238D01*
X159680666Y-83224476D01*
X159775904Y-83272095D01*
X158585428Y-82986380D02*
X158490190Y-82986380D01*
X158394952Y-83034000D01*
X158347333Y-83081619D01*
X158299714Y-83176857D01*
X158252095Y-83367333D01*
X158252095Y-83605428D01*
X158299714Y-83795904D01*
X158347333Y-83891142D01*
X158394952Y-83938761D01*
X158490190Y-83986380D01*
X158585428Y-83986380D01*
X158680666Y-83938761D01*
X158728285Y-83891142D01*
X158775904Y-83795904D01*
X158823523Y-83605428D01*
X158823523Y-83367333D01*
X158775904Y-83176857D01*
X158728285Y-83081619D01*
X158680666Y-83034000D01*
X158585428Y-82986380D01*
%TO.C,R2*%
X186477666Y-85764380D02*
X186811000Y-85288190D01*
X187049095Y-85764380D02*
X187049095Y-84764380D01*
X186668142Y-84764380D01*
X186572904Y-84812000D01*
X186525285Y-84859619D01*
X186477666Y-84954857D01*
X186477666Y-85097714D01*
X186525285Y-85192952D01*
X186572904Y-85240571D01*
X186668142Y-85288190D01*
X187049095Y-85288190D01*
X186096714Y-84859619D02*
X186049095Y-84812000D01*
X185953857Y-84764380D01*
X185715761Y-84764380D01*
X185620523Y-84812000D01*
X185572904Y-84859619D01*
X185525285Y-84954857D01*
X185525285Y-85050095D01*
X185572904Y-85192952D01*
X186144333Y-85764380D01*
X185525285Y-85764380D01*
D11*
%TO.C,R7*%
X165871252Y-79291000D02*
X165348748Y-79291000D01*
X165871252Y-77871000D02*
X165348748Y-77871000D01*
%TO.C,R6*%
X206579000Y-82256748D02*
X206579000Y-82779252D01*
X205159000Y-82256748D02*
X205159000Y-82779252D01*
%TO.C,R3*%
X165871252Y-68727000D02*
X165348748Y-68727000D01*
X165871252Y-70147000D02*
X165348748Y-70147000D01*
%TO.C,R12*%
X151124748Y-66972000D02*
X151647252Y-66972000D01*
X151124748Y-65552000D02*
X151647252Y-65552000D01*
%TO.C,R11*%
X145536748Y-66972000D02*
X146059252Y-66972000D01*
X145536748Y-65552000D02*
X146059252Y-65552000D01*
%TO.C,R14*%
X151124748Y-62631000D02*
X151647252Y-62631000D01*
X151124748Y-64051000D02*
X151647252Y-64051000D01*
%TO.C,R17*%
X209500000Y-64491252D02*
X209500000Y-63968748D01*
X208080000Y-64491252D02*
X208080000Y-63968748D01*
%TO.C,R4*%
X159775252Y-68727000D02*
X159252748Y-68727000D01*
X159775252Y-70147000D02*
X159252748Y-70147000D01*
%TO.C,R13*%
X145536748Y-64051000D02*
X146059252Y-64051000D01*
X145536748Y-62631000D02*
X146059252Y-62631000D01*
%TO.C,R9*%
X159252748Y-77871000D02*
X159775252Y-77871000D01*
X159252748Y-79291000D02*
X159775252Y-79291000D01*
%TO.C,R8*%
X165871252Y-82466000D02*
X165348748Y-82466000D01*
X165871252Y-81046000D02*
X165348748Y-81046000D01*
%TO.C,R5*%
X183846000Y-82256748D02*
X183846000Y-82779252D01*
X182426000Y-82256748D02*
X182426000Y-82779252D01*
%TO.C,R1*%
X209754000Y-82779252D02*
X209754000Y-82256748D01*
X208334000Y-82779252D02*
X208334000Y-82256748D01*
%TO.C,R15*%
X205032000Y-63968748D02*
X205032000Y-64491252D01*
X206452000Y-63968748D02*
X206452000Y-64491252D01*
%TO.C,R16*%
X186640000Y-63968748D02*
X186640000Y-64491252D01*
X185220000Y-63968748D02*
X185220000Y-64491252D01*
%TO.C,R18*%
X183592000Y-64491252D02*
X183592000Y-63968748D01*
X182172000Y-64491252D02*
X182172000Y-63968748D01*
%TO.C,R10*%
X159252748Y-82466000D02*
X159775252Y-82466000D01*
X159252748Y-81046000D02*
X159775252Y-81046000D01*
%TO.C,R2*%
X187021000Y-82779252D02*
X187021000Y-82256748D01*
X185601000Y-82779252D02*
X185601000Y-82256748D01*
%TD*%
M02*
