%TF.GenerationSoftware,KiCad,Pcbnew,(5.99.0-11640-gb6664eecf2)*%
%TF.CreationDate,2021-09-02T00:48:37+05:30*%
%TF.ProjectId,AudioInterface,41756469-6f49-46e7-9465-72666163652e,rev?*%
%TF.SameCoordinates,Original*%
%TF.FileFunction,Legend,Top*%
%TF.FilePolarity,Positive*%
%FSLAX46Y46*%
G04 Gerber Fmt 4.6, Leading zero omitted, Abs format (unit mm)*
G04 Created by KiCad (PCBNEW (5.99.0-11640-gb6664eecf2)) date 2021-09-02 00:48:37*
%MOMM*%
%LPD*%
G01*
G04 APERTURE LIST*
%ADD10C,0.120000*%
%ADD11C,0.150000*%
%ADD12C,0.200000*%
%ADD13C,0.100000*%
G04 APERTURE END LIST*
D10*
X140197380Y-54393809D02*
X140311666Y-54431904D01*
X140502142Y-54431904D01*
X140578333Y-54393809D01*
X140616428Y-54355714D01*
X140654523Y-54279523D01*
X140654523Y-54203333D01*
X140616428Y-54127142D01*
X140578333Y-54089047D01*
X140502142Y-54050952D01*
X140349761Y-54012857D01*
X140273571Y-53974761D01*
X140235476Y-53936666D01*
X140197380Y-53860476D01*
X140197380Y-53784285D01*
X140235476Y-53708095D01*
X140273571Y-53670000D01*
X140349761Y-53631904D01*
X140540238Y-53631904D01*
X140654523Y-53670000D01*
X141149761Y-53631904D02*
X141302142Y-53631904D01*
X141378333Y-53670000D01*
X141454523Y-53746190D01*
X141492619Y-53898571D01*
X141492619Y-54165238D01*
X141454523Y-54317619D01*
X141378333Y-54393809D01*
X141302142Y-54431904D01*
X141149761Y-54431904D01*
X141073571Y-54393809D01*
X140997380Y-54317619D01*
X140959285Y-54165238D01*
X140959285Y-53898571D01*
X140997380Y-53746190D01*
X141073571Y-53670000D01*
X141149761Y-53631904D01*
X195907380Y-98337380D02*
X195907380Y-98813571D01*
X194907380Y-98813571D01*
X195907380Y-98004047D02*
X194907380Y-98004047D01*
X195907380Y-97527857D02*
X194907380Y-97527857D01*
X195907380Y-96956428D01*
X194907380Y-96956428D01*
X139873571Y-64553809D02*
X139987857Y-64591904D01*
X140178333Y-64591904D01*
X140254523Y-64553809D01*
X140292619Y-64515714D01*
X140330714Y-64439523D01*
X140330714Y-64363333D01*
X140292619Y-64287142D01*
X140254523Y-64249047D01*
X140178333Y-64210952D01*
X140025952Y-64172857D01*
X139949761Y-64134761D01*
X139911666Y-64096666D01*
X139873571Y-64020476D01*
X139873571Y-63944285D01*
X139911666Y-63868095D01*
X139949761Y-63830000D01*
X140025952Y-63791904D01*
X140216428Y-63791904D01*
X140330714Y-63830000D01*
X140673571Y-64591904D02*
X140673571Y-63791904D01*
X140864047Y-63791904D01*
X140978333Y-63830000D01*
X141054523Y-63906190D01*
X141092619Y-63982380D01*
X141130714Y-64134761D01*
X141130714Y-64249047D01*
X141092619Y-64401428D01*
X141054523Y-64477619D01*
X140978333Y-64553809D01*
X140864047Y-64591904D01*
X140673571Y-64591904D01*
X141435476Y-64363333D02*
X141816428Y-64363333D01*
X141359285Y-64591904D02*
X141625952Y-63791904D01*
X141892619Y-64591904D01*
X218767380Y-98337380D02*
X218291190Y-98670714D01*
X218767380Y-98908809D02*
X217767380Y-98908809D01*
X217767380Y-98527857D01*
X217815000Y-98432619D01*
X217862619Y-98385000D01*
X217957857Y-98337380D01*
X218100714Y-98337380D01*
X218195952Y-98385000D01*
X218243571Y-98432619D01*
X218291190Y-98527857D01*
X218291190Y-98908809D01*
X218767380Y-97908809D02*
X217767380Y-97908809D01*
X218767380Y-97432619D02*
X217767380Y-97432619D01*
X218767380Y-96861190D01*
X217767380Y-96861190D01*
X139854523Y-48681904D02*
X140349761Y-48681904D01*
X140083095Y-48986666D01*
X140197380Y-48986666D01*
X140273571Y-49024761D01*
X140311666Y-49062857D01*
X140349761Y-49139047D01*
X140349761Y-49329523D01*
X140311666Y-49405714D01*
X140273571Y-49443809D01*
X140197380Y-49481904D01*
X139968809Y-49481904D01*
X139892619Y-49443809D01*
X139854523Y-49405714D01*
X140578333Y-48681904D02*
X140845000Y-49481904D01*
X141111666Y-48681904D01*
X141302142Y-48681904D02*
X141797380Y-48681904D01*
X141530714Y-48986666D01*
X141645000Y-48986666D01*
X141721190Y-49024761D01*
X141759285Y-49062857D01*
X141797380Y-49139047D01*
X141797380Y-49329523D01*
X141759285Y-49405714D01*
X141721190Y-49443809D01*
X141645000Y-49481904D01*
X141416428Y-49481904D01*
X141340238Y-49443809D01*
X141302142Y-49405714D01*
X195907380Y-51379047D02*
X195907380Y-51855238D01*
X194907380Y-51855238D01*
X194907380Y-50855238D02*
X194907380Y-50664761D01*
X194955000Y-50569523D01*
X195050238Y-50474285D01*
X195240714Y-50426666D01*
X195574047Y-50426666D01*
X195764523Y-50474285D01*
X195859761Y-50569523D01*
X195907380Y-50664761D01*
X195907380Y-50855238D01*
X195859761Y-50950476D01*
X195764523Y-51045714D01*
X195574047Y-51093333D01*
X195240714Y-51093333D01*
X195050238Y-51045714D01*
X194955000Y-50950476D01*
X194907380Y-50855238D01*
X194907380Y-49998095D02*
X195716904Y-49998095D01*
X195812142Y-49950476D01*
X195859761Y-49902857D01*
X195907380Y-49807619D01*
X195907380Y-49617142D01*
X195859761Y-49521904D01*
X195812142Y-49474285D01*
X195716904Y-49426666D01*
X194907380Y-49426666D01*
X194907380Y-49093333D02*
X194907380Y-48521904D01*
X195907380Y-48807619D02*
X194907380Y-48807619D01*
X218767380Y-51379047D02*
X218291190Y-51712380D01*
X218767380Y-51950476D02*
X217767380Y-51950476D01*
X217767380Y-51569523D01*
X217815000Y-51474285D01*
X217862619Y-51426666D01*
X217957857Y-51379047D01*
X218100714Y-51379047D01*
X218195952Y-51426666D01*
X218243571Y-51474285D01*
X218291190Y-51569523D01*
X218291190Y-51950476D01*
X217767380Y-50760000D02*
X217767380Y-50569523D01*
X217815000Y-50474285D01*
X217910238Y-50379047D01*
X218100714Y-50331428D01*
X218434047Y-50331428D01*
X218624523Y-50379047D01*
X218719761Y-50474285D01*
X218767380Y-50569523D01*
X218767380Y-50760000D01*
X218719761Y-50855238D01*
X218624523Y-50950476D01*
X218434047Y-50998095D01*
X218100714Y-50998095D01*
X217910238Y-50950476D01*
X217815000Y-50855238D01*
X217767380Y-50760000D01*
X217767380Y-49902857D02*
X218576904Y-49902857D01*
X218672142Y-49855238D01*
X218719761Y-49807619D01*
X218767380Y-49712380D01*
X218767380Y-49521904D01*
X218719761Y-49426666D01*
X218672142Y-49379047D01*
X218576904Y-49331428D01*
X217767380Y-49331428D01*
X217767380Y-48998095D02*
X217767380Y-48426666D01*
X218767380Y-48712380D02*
X217767380Y-48712380D01*
X140362476Y-66497000D02*
X140286285Y-66458904D01*
X140172000Y-66458904D01*
X140057714Y-66497000D01*
X139981523Y-66573190D01*
X139943428Y-66649380D01*
X139905333Y-66801761D01*
X139905333Y-66916047D01*
X139943428Y-67068428D01*
X139981523Y-67144619D01*
X140057714Y-67220809D01*
X140172000Y-67258904D01*
X140248190Y-67258904D01*
X140362476Y-67220809D01*
X140400571Y-67182714D01*
X140400571Y-66916047D01*
X140248190Y-66916047D01*
X140743428Y-67258904D02*
X140743428Y-66458904D01*
X141200571Y-67258904D01*
X141200571Y-66458904D01*
X141581523Y-67258904D02*
X141581523Y-66458904D01*
X141772000Y-66458904D01*
X141886285Y-66497000D01*
X141962476Y-66573190D01*
X142000571Y-66649380D01*
X142038666Y-66801761D01*
X142038666Y-66916047D01*
X142000571Y-67068428D01*
X141962476Y-67144619D01*
X141886285Y-67220809D01*
X141772000Y-67258904D01*
X141581523Y-67258904D01*
X139892619Y-62013809D02*
X140006904Y-62051904D01*
X140197380Y-62051904D01*
X140273571Y-62013809D01*
X140311666Y-61975714D01*
X140349761Y-61899523D01*
X140349761Y-61823333D01*
X140311666Y-61747142D01*
X140273571Y-61709047D01*
X140197380Y-61670952D01*
X140045000Y-61632857D01*
X139968809Y-61594761D01*
X139930714Y-61556666D01*
X139892619Y-61480476D01*
X139892619Y-61404285D01*
X139930714Y-61328095D01*
X139968809Y-61290000D01*
X140045000Y-61251904D01*
X140235476Y-61251904D01*
X140349761Y-61290000D01*
X141149761Y-61975714D02*
X141111666Y-62013809D01*
X140997380Y-62051904D01*
X140921190Y-62051904D01*
X140806904Y-62013809D01*
X140730714Y-61937619D01*
X140692619Y-61861428D01*
X140654523Y-61709047D01*
X140654523Y-61594761D01*
X140692619Y-61442380D01*
X140730714Y-61366190D01*
X140806904Y-61290000D01*
X140921190Y-61251904D01*
X140997380Y-61251904D01*
X141111666Y-61290000D01*
X141149761Y-61328095D01*
X141873571Y-62051904D02*
X141492619Y-62051904D01*
X141492619Y-61251904D01*
X139892619Y-56971904D02*
X139511666Y-56971904D01*
X139511666Y-56171904D01*
X140616428Y-56971904D02*
X140349761Y-56590952D01*
X140159285Y-56971904D02*
X140159285Y-56171904D01*
X140464047Y-56171904D01*
X140540238Y-56210000D01*
X140578333Y-56248095D01*
X140616428Y-56324285D01*
X140616428Y-56438571D01*
X140578333Y-56514761D01*
X140540238Y-56552857D01*
X140464047Y-56590952D01*
X140159285Y-56590952D01*
X141416428Y-56895714D02*
X141378333Y-56933809D01*
X141264047Y-56971904D01*
X141187857Y-56971904D01*
X141073571Y-56933809D01*
X140997380Y-56857619D01*
X140959285Y-56781428D01*
X140921190Y-56629047D01*
X140921190Y-56514761D01*
X140959285Y-56362380D01*
X140997380Y-56286190D01*
X141073571Y-56210000D01*
X141187857Y-56171904D01*
X141264047Y-56171904D01*
X141378333Y-56210000D01*
X141416428Y-56248095D01*
X141759285Y-56971904D02*
X141759285Y-56171904D01*
X142216428Y-56971904D02*
X141873571Y-56514761D01*
X142216428Y-56171904D02*
X141759285Y-56629047D01*
X140425952Y-59473809D02*
X140540238Y-59511904D01*
X140730714Y-59511904D01*
X140806904Y-59473809D01*
X140845000Y-59435714D01*
X140883095Y-59359523D01*
X140883095Y-59283333D01*
X140845000Y-59207142D01*
X140806904Y-59169047D01*
X140730714Y-59130952D01*
X140578333Y-59092857D01*
X140502142Y-59054761D01*
X140464047Y-59016666D01*
X140425952Y-58940476D01*
X140425952Y-58864285D01*
X140464047Y-58788095D01*
X140502142Y-58750000D01*
X140578333Y-58711904D01*
X140768809Y-58711904D01*
X140883095Y-58750000D01*
X141225952Y-59511904D02*
X141225952Y-58711904D01*
X139816428Y-51983809D02*
X139930714Y-52021904D01*
X140121190Y-52021904D01*
X140197380Y-51983809D01*
X140235476Y-51945714D01*
X140273571Y-51869523D01*
X140273571Y-51793333D01*
X140235476Y-51717142D01*
X140197380Y-51679047D01*
X140121190Y-51640952D01*
X139968809Y-51602857D01*
X139892619Y-51564761D01*
X139854523Y-51526666D01*
X139816428Y-51450476D01*
X139816428Y-51374285D01*
X139854523Y-51298095D01*
X139892619Y-51260000D01*
X139968809Y-51221904D01*
X140159285Y-51221904D01*
X140273571Y-51260000D01*
X141073571Y-51945714D02*
X141035476Y-51983809D01*
X140921190Y-52021904D01*
X140845000Y-52021904D01*
X140730714Y-51983809D01*
X140654523Y-51907619D01*
X140616428Y-51831428D01*
X140578333Y-51679047D01*
X140578333Y-51564761D01*
X140616428Y-51412380D01*
X140654523Y-51336190D01*
X140730714Y-51260000D01*
X140845000Y-51221904D01*
X140921190Y-51221904D01*
X141035476Y-51260000D01*
X141073571Y-51298095D01*
X141416428Y-52021904D02*
X141416428Y-51221904D01*
X141873571Y-52021904D02*
X141530714Y-51564761D01*
X141873571Y-51221904D02*
X141416428Y-51679047D01*
D11*
%TO.C,J4*%
X144112619Y-47797380D02*
X144445952Y-48797380D01*
X144779285Y-47797380D01*
X145112619Y-48416428D02*
X145874523Y-48416428D01*
X152592619Y-47797380D02*
X152925952Y-48797380D01*
X153259285Y-47797380D01*
X153592619Y-48416428D02*
X154354523Y-48416428D01*
X153973571Y-48797380D02*
X153973571Y-48035476D01*
X148822142Y-47845000D02*
X148726904Y-47797380D01*
X148584047Y-47797380D01*
X148441190Y-47845000D01*
X148345952Y-47940238D01*
X148298333Y-48035476D01*
X148250714Y-48225952D01*
X148250714Y-48368809D01*
X148298333Y-48559285D01*
X148345952Y-48654523D01*
X148441190Y-48749761D01*
X148584047Y-48797380D01*
X148679285Y-48797380D01*
X148822142Y-48749761D01*
X148869761Y-48702142D01*
X148869761Y-48368809D01*
X148679285Y-48368809D01*
X149298333Y-48130714D02*
X149298333Y-48797380D01*
X149298333Y-48225952D02*
X149345952Y-48178333D01*
X149441190Y-48130714D01*
X149584047Y-48130714D01*
X149679285Y-48178333D01*
X149726904Y-48273571D01*
X149726904Y-48797380D01*
X150631666Y-48797380D02*
X150631666Y-47797380D01*
X150631666Y-48749761D02*
X150536428Y-48797380D01*
X150345952Y-48797380D01*
X150250714Y-48749761D01*
X150203095Y-48702142D01*
X150155476Y-48606904D01*
X150155476Y-48321190D01*
X150203095Y-48225952D01*
X150250714Y-48178333D01*
X150345952Y-48130714D01*
X150536428Y-48130714D01*
X150631666Y-48178333D01*
%TO.C,J2*%
X183691666Y-88447380D02*
X183691666Y-89161666D01*
X183644047Y-89304523D01*
X183548809Y-89399761D01*
X183405952Y-89447380D01*
X183310714Y-89447380D01*
X184120238Y-88542619D02*
X184167857Y-88495000D01*
X184263095Y-88447380D01*
X184501190Y-88447380D01*
X184596428Y-88495000D01*
X184644047Y-88542619D01*
X184691666Y-88637857D01*
X184691666Y-88733095D01*
X184644047Y-88875952D01*
X184072619Y-89447380D01*
X184691666Y-89447380D01*
%TO.C,C12*%
X170610142Y-61316857D02*
X170657761Y-61364476D01*
X170705380Y-61507333D01*
X170705380Y-61602571D01*
X170657761Y-61745428D01*
X170562523Y-61840666D01*
X170467285Y-61888285D01*
X170276809Y-61935904D01*
X170133952Y-61935904D01*
X169943476Y-61888285D01*
X169848238Y-61840666D01*
X169753000Y-61745428D01*
X169705380Y-61602571D01*
X169705380Y-61507333D01*
X169753000Y-61364476D01*
X169800619Y-61316857D01*
X170705380Y-60364476D02*
X170705380Y-60935904D01*
X170705380Y-60650190D02*
X169705380Y-60650190D01*
X169848238Y-60745428D01*
X169943476Y-60840666D01*
X169991095Y-60935904D01*
X169800619Y-59983523D02*
X169753000Y-59935904D01*
X169705380Y-59840666D01*
X169705380Y-59602571D01*
X169753000Y-59507333D01*
X169800619Y-59459714D01*
X169895857Y-59412095D01*
X169991095Y-59412095D01*
X170133952Y-59459714D01*
X170705380Y-60031142D01*
X170705380Y-59412095D01*
%TO.C,C11*%
X156823142Y-61316857D02*
X156870761Y-61364476D01*
X156918380Y-61507333D01*
X156918380Y-61602571D01*
X156870761Y-61745428D01*
X156775523Y-61840666D01*
X156680285Y-61888285D01*
X156489809Y-61935904D01*
X156346952Y-61935904D01*
X156156476Y-61888285D01*
X156061238Y-61840666D01*
X155966000Y-61745428D01*
X155918380Y-61602571D01*
X155918380Y-61507333D01*
X155966000Y-61364476D01*
X156013619Y-61316857D01*
X156918380Y-60364476D02*
X156918380Y-60935904D01*
X156918380Y-60650190D02*
X155918380Y-60650190D01*
X156061238Y-60745428D01*
X156156476Y-60840666D01*
X156204095Y-60935904D01*
X156918380Y-59412095D02*
X156918380Y-59983523D01*
X156918380Y-59697809D02*
X155918380Y-59697809D01*
X156061238Y-59793047D01*
X156156476Y-59888285D01*
X156204095Y-59983523D01*
%TO.C,U1*%
X153921095Y-80700380D02*
X153921095Y-81509904D01*
X153968714Y-81605142D01*
X154016333Y-81652761D01*
X154111571Y-81700380D01*
X154302047Y-81700380D01*
X154397285Y-81652761D01*
X154444904Y-81605142D01*
X154492523Y-81509904D01*
X154492523Y-80700380D01*
X155492523Y-81700380D02*
X154921095Y-81700380D01*
X155206809Y-81700380D02*
X155206809Y-80700380D01*
X155111571Y-80843238D01*
X155016333Y-80938476D01*
X154921095Y-80986095D01*
%TO.C,Y1*%
X138971809Y-82113190D02*
X138971809Y-82589380D01*
X138638476Y-81589380D02*
X138971809Y-82113190D01*
X139305142Y-81589380D01*
X140162285Y-82589380D02*
X139590857Y-82589380D01*
X139876571Y-82589380D02*
X139876571Y-81589380D01*
X139781333Y-81732238D01*
X139686095Y-81827476D01*
X139590857Y-81875095D01*
%TO.C,C4*%
X139281333Y-75382142D02*
X139233714Y-75429761D01*
X139090857Y-75477380D01*
X138995619Y-75477380D01*
X138852761Y-75429761D01*
X138757523Y-75334523D01*
X138709904Y-75239285D01*
X138662285Y-75048809D01*
X138662285Y-74905952D01*
X138709904Y-74715476D01*
X138757523Y-74620238D01*
X138852761Y-74525000D01*
X138995619Y-74477380D01*
X139090857Y-74477380D01*
X139233714Y-74525000D01*
X139281333Y-74572619D01*
X140138476Y-74810714D02*
X140138476Y-75477380D01*
X139900380Y-74429761D02*
X139662285Y-75144047D01*
X140281333Y-75144047D01*
%TO.C,J5*%
X207186666Y-57332380D02*
X207186666Y-58046666D01*
X207139047Y-58189523D01*
X207043809Y-58284761D01*
X206900952Y-58332380D01*
X206805714Y-58332380D01*
X208139047Y-57332380D02*
X207662857Y-57332380D01*
X207615238Y-57808571D01*
X207662857Y-57760952D01*
X207758095Y-57713333D01*
X207996190Y-57713333D01*
X208091428Y-57760952D01*
X208139047Y-57808571D01*
X208186666Y-57903809D01*
X208186666Y-58141904D01*
X208139047Y-58237142D01*
X208091428Y-58284761D01*
X207996190Y-58332380D01*
X207758095Y-58332380D01*
X207662857Y-58284761D01*
X207615238Y-58237142D01*
%TO.C,U3*%
X171706095Y-72318380D02*
X171706095Y-73127904D01*
X171753714Y-73223142D01*
X171801333Y-73270761D01*
X171896571Y-73318380D01*
X172087047Y-73318380D01*
X172182285Y-73270761D01*
X172229904Y-73223142D01*
X172277523Y-73127904D01*
X172277523Y-72318380D01*
X172658476Y-72318380D02*
X173277523Y-72318380D01*
X172944190Y-72699333D01*
X173087047Y-72699333D01*
X173182285Y-72746952D01*
X173229904Y-72794571D01*
X173277523Y-72889809D01*
X173277523Y-73127904D01*
X173229904Y-73223142D01*
X173182285Y-73270761D01*
X173087047Y-73318380D01*
X172801333Y-73318380D01*
X172706095Y-73270761D01*
X172658476Y-73223142D01*
%TO.C,J1*%
X207186666Y-88447380D02*
X207186666Y-89161666D01*
X207139047Y-89304523D01*
X207043809Y-89399761D01*
X206900952Y-89447380D01*
X206805714Y-89447380D01*
X208186666Y-89447380D02*
X207615238Y-89447380D01*
X207900952Y-89447380D02*
X207900952Y-88447380D01*
X207805714Y-88590238D01*
X207710476Y-88685476D01*
X207615238Y-88733095D01*
%TO.C,C1*%
X140475333Y-97480142D02*
X140427714Y-97527761D01*
X140284857Y-97575380D01*
X140189619Y-97575380D01*
X140046761Y-97527761D01*
X139951523Y-97432523D01*
X139903904Y-97337285D01*
X139856285Y-97146809D01*
X139856285Y-97003952D01*
X139903904Y-96813476D01*
X139951523Y-96718238D01*
X140046761Y-96623000D01*
X140189619Y-96575380D01*
X140284857Y-96575380D01*
X140427714Y-96623000D01*
X140475333Y-96670619D01*
X141427714Y-97575380D02*
X140856285Y-97575380D01*
X141142000Y-97575380D02*
X141142000Y-96575380D01*
X141046761Y-96718238D01*
X140951523Y-96813476D01*
X140856285Y-96861095D01*
%TO.C,RV1*%
X161966761Y-76551380D02*
X161633428Y-76075190D01*
X161395333Y-76551380D02*
X161395333Y-75551380D01*
X161776285Y-75551380D01*
X161871523Y-75599000D01*
X161919142Y-75646619D01*
X161966761Y-75741857D01*
X161966761Y-75884714D01*
X161919142Y-75979952D01*
X161871523Y-76027571D01*
X161776285Y-76075190D01*
X161395333Y-76075190D01*
X162252476Y-75551380D02*
X162585809Y-76551380D01*
X162919142Y-75551380D01*
X163776285Y-76551380D02*
X163204857Y-76551380D01*
X163490571Y-76551380D02*
X163490571Y-75551380D01*
X163395333Y-75694238D01*
X163300095Y-75789476D01*
X163204857Y-75837095D01*
%TO.C,C9*%
X145631333Y-68651142D02*
X145583714Y-68698761D01*
X145440857Y-68746380D01*
X145345619Y-68746380D01*
X145202761Y-68698761D01*
X145107523Y-68603523D01*
X145059904Y-68508285D01*
X145012285Y-68317809D01*
X145012285Y-68174952D01*
X145059904Y-67984476D01*
X145107523Y-67889238D01*
X145202761Y-67794000D01*
X145345619Y-67746380D01*
X145440857Y-67746380D01*
X145583714Y-67794000D01*
X145631333Y-67841619D01*
X146107523Y-68746380D02*
X146298000Y-68746380D01*
X146393238Y-68698761D01*
X146440857Y-68651142D01*
X146536095Y-68508285D01*
X146583714Y-68317809D01*
X146583714Y-67936857D01*
X146536095Y-67841619D01*
X146488476Y-67794000D01*
X146393238Y-67746380D01*
X146202761Y-67746380D01*
X146107523Y-67794000D01*
X146059904Y-67841619D01*
X146012285Y-67936857D01*
X146012285Y-68174952D01*
X146059904Y-68270190D01*
X146107523Y-68317809D01*
X146202761Y-68365428D01*
X146393238Y-68365428D01*
X146488476Y-68317809D01*
X146536095Y-68270190D01*
X146583714Y-68174952D01*
%TO.C,C3*%
X136995333Y-75362142D02*
X136947714Y-75409761D01*
X136804857Y-75457380D01*
X136709619Y-75457380D01*
X136566761Y-75409761D01*
X136471523Y-75314523D01*
X136423904Y-75219285D01*
X136376285Y-75028809D01*
X136376285Y-74885952D01*
X136423904Y-74695476D01*
X136471523Y-74600238D01*
X136566761Y-74505000D01*
X136709619Y-74457380D01*
X136804857Y-74457380D01*
X136947714Y-74505000D01*
X136995333Y-74552619D01*
X137328666Y-74457380D02*
X137947714Y-74457380D01*
X137614380Y-74838333D01*
X137757238Y-74838333D01*
X137852476Y-74885952D01*
X137900095Y-74933571D01*
X137947714Y-75028809D01*
X137947714Y-75266904D01*
X137900095Y-75362142D01*
X137852476Y-75409761D01*
X137757238Y-75457380D01*
X137471523Y-75457380D01*
X137376285Y-75409761D01*
X137328666Y-75362142D01*
%TO.C,C8*%
X150965333Y-94305142D02*
X150917714Y-94352761D01*
X150774857Y-94400380D01*
X150679619Y-94400380D01*
X150536761Y-94352761D01*
X150441523Y-94257523D01*
X150393904Y-94162285D01*
X150346285Y-93971809D01*
X150346285Y-93828952D01*
X150393904Y-93638476D01*
X150441523Y-93543238D01*
X150536761Y-93448000D01*
X150679619Y-93400380D01*
X150774857Y-93400380D01*
X150917714Y-93448000D01*
X150965333Y-93495619D01*
X151536761Y-93828952D02*
X151441523Y-93781333D01*
X151393904Y-93733714D01*
X151346285Y-93638476D01*
X151346285Y-93590857D01*
X151393904Y-93495619D01*
X151441523Y-93448000D01*
X151536761Y-93400380D01*
X151727238Y-93400380D01*
X151822476Y-93448000D01*
X151870095Y-93495619D01*
X151917714Y-93590857D01*
X151917714Y-93638476D01*
X151870095Y-93733714D01*
X151822476Y-93781333D01*
X151727238Y-93828952D01*
X151536761Y-93828952D01*
X151441523Y-93876571D01*
X151393904Y-93924190D01*
X151346285Y-94019428D01*
X151346285Y-94209904D01*
X151393904Y-94305142D01*
X151441523Y-94352761D01*
X151536761Y-94400380D01*
X151727238Y-94400380D01*
X151822476Y-94352761D01*
X151870095Y-94305142D01*
X151917714Y-94209904D01*
X151917714Y-94019428D01*
X151870095Y-93924190D01*
X151822476Y-93876571D01*
X151727238Y-93828952D01*
%TO.C,C2*%
X139281333Y-94432142D02*
X139233714Y-94479761D01*
X139090857Y-94527380D01*
X138995619Y-94527380D01*
X138852761Y-94479761D01*
X138757523Y-94384523D01*
X138709904Y-94289285D01*
X138662285Y-94098809D01*
X138662285Y-93955952D01*
X138709904Y-93765476D01*
X138757523Y-93670238D01*
X138852761Y-93575000D01*
X138995619Y-93527380D01*
X139090857Y-93527380D01*
X139233714Y-93575000D01*
X139281333Y-93622619D01*
X139662285Y-93622619D02*
X139709904Y-93575000D01*
X139805142Y-93527380D01*
X140043238Y-93527380D01*
X140138476Y-93575000D01*
X140186095Y-93622619D01*
X140233714Y-93717857D01*
X140233714Y-93813095D01*
X140186095Y-93955952D01*
X139614666Y-94527380D01*
X140233714Y-94527380D01*
%TO.C,J6*%
X184326666Y-57332380D02*
X184326666Y-58046666D01*
X184279047Y-58189523D01*
X184183809Y-58284761D01*
X184040952Y-58332380D01*
X183945714Y-58332380D01*
X185231428Y-57332380D02*
X185040952Y-57332380D01*
X184945714Y-57380000D01*
X184898095Y-57427619D01*
X184802857Y-57570476D01*
X184755238Y-57760952D01*
X184755238Y-58141904D01*
X184802857Y-58237142D01*
X184850476Y-58284761D01*
X184945714Y-58332380D01*
X185136190Y-58332380D01*
X185231428Y-58284761D01*
X185279047Y-58237142D01*
X185326666Y-58141904D01*
X185326666Y-57903809D01*
X185279047Y-57808571D01*
X185231428Y-57760952D01*
X185136190Y-57713333D01*
X184945714Y-57713333D01*
X184850476Y-57760952D01*
X184802857Y-57808571D01*
X184755238Y-57903809D01*
%TO.C,C7*%
X145377333Y-94305142D02*
X145329714Y-94352761D01*
X145186857Y-94400380D01*
X145091619Y-94400380D01*
X144948761Y-94352761D01*
X144853523Y-94257523D01*
X144805904Y-94162285D01*
X144758285Y-93971809D01*
X144758285Y-93828952D01*
X144805904Y-93638476D01*
X144853523Y-93543238D01*
X144948761Y-93448000D01*
X145091619Y-93400380D01*
X145186857Y-93400380D01*
X145329714Y-93448000D01*
X145377333Y-93495619D01*
X145710666Y-93400380D02*
X146377333Y-93400380D01*
X145948761Y-94400380D01*
%TO.C,C5*%
X147409333Y-95956142D02*
X147361714Y-96003761D01*
X147218857Y-96051380D01*
X147123619Y-96051380D01*
X146980761Y-96003761D01*
X146885523Y-95908523D01*
X146837904Y-95813285D01*
X146790285Y-95622809D01*
X146790285Y-95479952D01*
X146837904Y-95289476D01*
X146885523Y-95194238D01*
X146980761Y-95099000D01*
X147123619Y-95051380D01*
X147218857Y-95051380D01*
X147361714Y-95099000D01*
X147409333Y-95146619D01*
X148314095Y-95051380D02*
X147837904Y-95051380D01*
X147790285Y-95527571D01*
X147837904Y-95479952D01*
X147933142Y-95432333D01*
X148171238Y-95432333D01*
X148266476Y-95479952D01*
X148314095Y-95527571D01*
X148361714Y-95622809D01*
X148361714Y-95860904D01*
X148314095Y-95956142D01*
X148266476Y-96003761D01*
X148171238Y-96051380D01*
X147933142Y-96051380D01*
X147837904Y-96003761D01*
X147790285Y-95956142D01*
%TO.C,C6*%
X153505333Y-95956142D02*
X153457714Y-96003761D01*
X153314857Y-96051380D01*
X153219619Y-96051380D01*
X153076761Y-96003761D01*
X152981523Y-95908523D01*
X152933904Y-95813285D01*
X152886285Y-95622809D01*
X152886285Y-95479952D01*
X152933904Y-95289476D01*
X152981523Y-95194238D01*
X153076761Y-95099000D01*
X153219619Y-95051380D01*
X153314857Y-95051380D01*
X153457714Y-95099000D01*
X153505333Y-95146619D01*
X154362476Y-95051380D02*
X154172000Y-95051380D01*
X154076761Y-95099000D01*
X154029142Y-95146619D01*
X153933904Y-95289476D01*
X153886285Y-95479952D01*
X153886285Y-95860904D01*
X153933904Y-95956142D01*
X153981523Y-96003761D01*
X154076761Y-96051380D01*
X154267238Y-96051380D01*
X154362476Y-96003761D01*
X154410095Y-95956142D01*
X154457714Y-95860904D01*
X154457714Y-95622809D01*
X154410095Y-95527571D01*
X154362476Y-95479952D01*
X154267238Y-95432333D01*
X154076761Y-95432333D01*
X153981523Y-95479952D01*
X153933904Y-95527571D01*
X153886285Y-95622809D01*
%TO.C,C10*%
X150743142Y-68651142D02*
X150695523Y-68698761D01*
X150552666Y-68746380D01*
X150457428Y-68746380D01*
X150314571Y-68698761D01*
X150219333Y-68603523D01*
X150171714Y-68508285D01*
X150124095Y-68317809D01*
X150124095Y-68174952D01*
X150171714Y-67984476D01*
X150219333Y-67889238D01*
X150314571Y-67794000D01*
X150457428Y-67746380D01*
X150552666Y-67746380D01*
X150695523Y-67794000D01*
X150743142Y-67841619D01*
X151695523Y-68746380D02*
X151124095Y-68746380D01*
X151409809Y-68746380D02*
X151409809Y-67746380D01*
X151314571Y-67889238D01*
X151219333Y-67984476D01*
X151124095Y-68032095D01*
X152314571Y-67746380D02*
X152409809Y-67746380D01*
X152505047Y-67794000D01*
X152552666Y-67841619D01*
X152600285Y-67936857D01*
X152647904Y-68127333D01*
X152647904Y-68365428D01*
X152600285Y-68555904D01*
X152552666Y-68651142D01*
X152505047Y-68698761D01*
X152409809Y-68746380D01*
X152314571Y-68746380D01*
X152219333Y-68698761D01*
X152171714Y-68651142D01*
X152124095Y-68555904D01*
X152076476Y-68365428D01*
X152076476Y-68127333D01*
X152124095Y-67936857D01*
X152171714Y-67841619D01*
X152219333Y-67794000D01*
X152314571Y-67746380D01*
%TO.C,U2*%
X172011095Y-83367380D02*
X172011095Y-84176904D01*
X172058714Y-84272142D01*
X172106333Y-84319761D01*
X172201571Y-84367380D01*
X172392047Y-84367380D01*
X172487285Y-84319761D01*
X172534904Y-84272142D01*
X172582523Y-84176904D01*
X172582523Y-83367380D01*
X173011095Y-83462619D02*
X173058714Y-83415000D01*
X173153952Y-83367380D01*
X173392047Y-83367380D01*
X173487285Y-83415000D01*
X173534904Y-83462619D01*
X173582523Y-83557857D01*
X173582523Y-83653095D01*
X173534904Y-83795952D01*
X172963476Y-84367380D01*
X173582523Y-84367380D01*
D10*
%TO.C,J4*%
X155265000Y-49030000D02*
X142935000Y-49030000D01*
X155265000Y-61630000D02*
X142935000Y-61630000D01*
%TO.C,J8*%
X135832000Y-50260000D02*
X135832000Y-68100000D01*
X135832000Y-50260000D02*
X138492000Y-50260000D01*
X138492000Y-50260000D02*
X138492000Y-68100000D01*
X135832000Y-47660000D02*
X137162000Y-47660000D01*
X135832000Y-48990000D02*
X135832000Y-47660000D01*
X135832000Y-68100000D02*
X138492000Y-68100000D01*
D12*
%TO.C,J2*%
X194920000Y-95440000D02*
X194920000Y-95440000D01*
D13*
X193720000Y-96840000D02*
X193720000Y-99690000D01*
X193720000Y-99690000D02*
X193720000Y-96840000D01*
X175505000Y-99690000D02*
X175505000Y-99690000D01*
X175505000Y-99690000D02*
X193705000Y-99690000D01*
X193705000Y-75690000D02*
X193705000Y-75690000D01*
X193720000Y-99690000D02*
X193720000Y-99690000D01*
X193705000Y-78290000D02*
X193705000Y-75690000D01*
X193705000Y-75690000D02*
X193705000Y-78290000D01*
X193705000Y-78290000D02*
X193705000Y-78290000D01*
X175505000Y-78290000D02*
X175505000Y-75690000D01*
X175505000Y-75690000D02*
X175505000Y-78290000D01*
X175505000Y-75690000D02*
X193705000Y-75690000D01*
D12*
X194920000Y-95340000D02*
X194920000Y-95340000D01*
D13*
X193705000Y-99690000D02*
X175505000Y-99690000D01*
X175505000Y-97340000D02*
X175505000Y-99690000D01*
X175505000Y-99690000D02*
X175505000Y-99690000D01*
X193705000Y-75690000D02*
X193705000Y-75690000D01*
X175505000Y-99690000D02*
X175505000Y-97340000D01*
X193705000Y-75690000D02*
X175505000Y-75690000D01*
X175505000Y-75690000D02*
X175505000Y-75690000D01*
X175505000Y-75690000D02*
X175505000Y-75690000D01*
X193720000Y-96840000D02*
X193720000Y-96840000D01*
X175505000Y-78290000D02*
X175505000Y-78290000D01*
D12*
X194920000Y-95340000D02*
X194920000Y-95340000D01*
D13*
X175505000Y-97340000D02*
X175505000Y-97340000D01*
X193705000Y-99690000D02*
X193705000Y-99690000D01*
D12*
X194920000Y-95440000D02*
G75*
G02*
X194920000Y-95340000I0J50000D01*
G01*
X194920000Y-95440000D02*
G75*
G02*
X194920000Y-95340000I0J50000D01*
G01*
X194920000Y-95340000D02*
G75*
G02*
X194920000Y-95440000I0J-50000D01*
G01*
D10*
%TO.C,C12*%
X167687000Y-61594000D02*
X166429000Y-61594000D01*
X167687000Y-59754000D02*
X166429000Y-59754000D01*
%TO.C,C11*%
X158885000Y-59754000D02*
X160143000Y-59754000D01*
X158885000Y-61594000D02*
X160143000Y-61594000D01*
D11*
%TO.C,U1*%
X145463000Y-76498000D02*
X143863000Y-76498000D01*
X145463000Y-75923000D02*
X145463000Y-76498000D01*
X151213000Y-86573000D02*
X151213000Y-85923000D01*
X145463000Y-86573000D02*
X151213000Y-86573000D01*
X151213000Y-75923000D02*
X151213000Y-76573000D01*
X145463000Y-86573000D02*
X145463000Y-85923000D01*
X145463000Y-75923000D02*
X151213000Y-75923000D01*
D10*
%TO.C,Y1*%
X141973000Y-79012000D02*
X141973000Y-85262000D01*
X136923000Y-79012000D02*
X136923000Y-85262000D01*
X136923000Y-85262000D02*
G75*
G03*
X141973000Y-85262000I2525000J0D01*
G01*
X136923000Y-79012000D02*
G75*
G02*
X141973000Y-79012000I2525000J0D01*
G01*
%TO.C,C4*%
X140368000Y-71602000D02*
X140368000Y-72860000D01*
X138528000Y-71602000D02*
X138528000Y-72860000D01*
D13*
%TO.C,J5*%
X198250000Y-47080000D02*
X198250000Y-49930000D01*
X198265000Y-68480000D02*
X198265000Y-68480000D01*
X216465000Y-68480000D02*
X216465000Y-71080000D01*
X216465000Y-49430000D02*
X216465000Y-49430000D01*
X216465000Y-71080000D02*
X216465000Y-68480000D01*
X198265000Y-71080000D02*
X198265000Y-71080000D01*
X216465000Y-68480000D02*
X216465000Y-68480000D01*
X216465000Y-47080000D02*
X216465000Y-49430000D01*
X198265000Y-47080000D02*
X198265000Y-47080000D01*
D12*
X197050000Y-51430000D02*
X197050000Y-51430000D01*
D13*
X216465000Y-71080000D02*
X198265000Y-71080000D01*
X216465000Y-47080000D02*
X198265000Y-47080000D01*
X198265000Y-71080000D02*
X198265000Y-68480000D01*
X216465000Y-47080000D02*
X216465000Y-47080000D01*
X198250000Y-47080000D02*
X198250000Y-47080000D01*
X216465000Y-71080000D02*
X216465000Y-71080000D01*
X216465000Y-71080000D02*
X216465000Y-71080000D01*
D12*
X197050000Y-51330000D02*
X197050000Y-51330000D01*
D13*
X216465000Y-49430000D02*
X216465000Y-47080000D01*
X198250000Y-49930000D02*
X198250000Y-49930000D01*
X198265000Y-71080000D02*
X198265000Y-71080000D01*
X198265000Y-47080000D02*
X216465000Y-47080000D01*
X198265000Y-71080000D02*
X216465000Y-71080000D01*
X216465000Y-47080000D02*
X216465000Y-47080000D01*
X198265000Y-68480000D02*
X198265000Y-71080000D01*
D12*
X197050000Y-51430000D02*
X197050000Y-51430000D01*
D13*
X198250000Y-49930000D02*
X198250000Y-47080000D01*
D12*
X197050000Y-51330000D02*
G75*
G02*
X197050000Y-51430000I0J-50000D01*
G01*
X197050000Y-51330000D02*
G75*
G02*
X197050000Y-51430000I0J-50000D01*
G01*
X197050000Y-51430000D02*
G75*
G02*
X197050000Y-51330000I0J50000D01*
G01*
D10*
%TO.C,J3*%
X165075000Y-99790000D02*
X165075000Y-98590000D01*
X161075000Y-99790000D02*
X161075000Y-98590000D01*
X157075000Y-88290000D02*
X169075000Y-88290000D01*
X157075000Y-99790000D02*
X161075000Y-99790000D01*
X165075000Y-98590000D02*
X161075000Y-98590000D01*
X165075000Y-99790000D02*
X169075000Y-99790000D01*
%TO.C,U3*%
X174205000Y-69956000D02*
X174205000Y-68156000D01*
X170985000Y-68156000D02*
X170985000Y-71106000D01*
D13*
%TO.C,J1*%
X216580000Y-96840000D02*
X216580000Y-96840000D01*
X198365000Y-99690000D02*
X198365000Y-99690000D01*
X216580000Y-99690000D02*
X216580000Y-99690000D01*
X216565000Y-75690000D02*
X216565000Y-78290000D01*
X216565000Y-99690000D02*
X198365000Y-99690000D01*
X216565000Y-75690000D02*
X198365000Y-75690000D01*
X216580000Y-96840000D02*
X216580000Y-99690000D01*
D12*
X217780000Y-95440000D02*
X217780000Y-95440000D01*
D13*
X198365000Y-99690000D02*
X216565000Y-99690000D01*
X198365000Y-97340000D02*
X198365000Y-97340000D01*
X198365000Y-99690000D02*
X198365000Y-97340000D01*
X198365000Y-97340000D02*
X198365000Y-99690000D01*
X198365000Y-99690000D02*
X198365000Y-99690000D01*
X198365000Y-78290000D02*
X198365000Y-75690000D01*
X198365000Y-78290000D02*
X198365000Y-78290000D01*
X216565000Y-75690000D02*
X216565000Y-75690000D01*
X216565000Y-78290000D02*
X216565000Y-78290000D01*
X198365000Y-75690000D02*
X198365000Y-75690000D01*
D12*
X217780000Y-95340000D02*
X217780000Y-95340000D01*
D13*
X198365000Y-75690000D02*
X198365000Y-75690000D01*
X216565000Y-78290000D02*
X216565000Y-75690000D01*
D12*
X217780000Y-95340000D02*
X217780000Y-95340000D01*
D13*
X198365000Y-75690000D02*
X216565000Y-75690000D01*
X216565000Y-75690000D02*
X216565000Y-75690000D01*
X216580000Y-99690000D02*
X216580000Y-96840000D01*
X198365000Y-75690000D02*
X198365000Y-78290000D01*
X216565000Y-99690000D02*
X216565000Y-99690000D01*
D12*
X217780000Y-95440000D02*
G75*
G02*
X217780000Y-95340000I0J50000D01*
G01*
X217780000Y-95440000D02*
G75*
G02*
X217780000Y-95340000I0J50000D01*
G01*
X217780000Y-95340000D02*
G75*
G02*
X217780000Y-95440000I0J-50000D01*
G01*
D10*
%TO.C,C1*%
X144362000Y-98493000D02*
X144362000Y-95753000D01*
X136922000Y-98493000D02*
X136922000Y-95753000D01*
X144362000Y-95753000D02*
X136922000Y-95753000D01*
X144362000Y-98493000D02*
X136922000Y-98493000D01*
%TO.C,C9*%
X145428000Y-69233600D02*
X146168000Y-69233600D01*
X143721000Y-71194600D02*
X144958000Y-71194600D01*
X144858000Y-69433600D02*
X146738000Y-69433600D01*
X143719000Y-71234600D02*
X144958000Y-71234600D01*
X146638000Y-70674600D02*
X147780000Y-70674600D01*
X146638000Y-70233600D02*
X147583000Y-70233600D01*
X145134000Y-69313600D02*
X146462000Y-69313600D01*
X146638000Y-70874600D02*
X147832000Y-70874600D01*
X144360000Y-69793600D02*
X144958000Y-69793600D01*
X146638000Y-71314600D02*
X147878000Y-71314600D01*
X145030000Y-69353600D02*
X146566000Y-69353600D01*
X146638000Y-70433600D02*
X147687000Y-70433600D01*
X146638000Y-71234600D02*
X147877000Y-71234600D01*
X146638000Y-69953600D02*
X147385000Y-69953600D01*
X143804000Y-70714600D02*
X144958000Y-70714600D01*
X144063000Y-70153600D02*
X144958000Y-70153600D01*
X144179000Y-69993600D02*
X144958000Y-69993600D01*
X144282000Y-69873600D02*
X144958000Y-69873600D01*
X144038000Y-70193600D02*
X144958000Y-70193600D01*
X146638000Y-70754600D02*
X147803000Y-70754600D01*
X144211000Y-69953600D02*
X144958000Y-69953600D01*
X146638000Y-70914600D02*
X147840000Y-70914600D01*
X146638000Y-70193600D02*
X147558000Y-70193600D01*
X144118000Y-70073600D02*
X144958000Y-70073600D01*
X144718000Y-69513600D02*
X146878000Y-69513600D01*
X146638000Y-71194600D02*
X147875000Y-71194600D01*
X146638000Y-70593600D02*
X147752000Y-70593600D01*
X146638000Y-70634600D02*
X147766000Y-70634600D01*
X144544000Y-69633600D02*
X147052000Y-69633600D01*
X146638000Y-69753600D02*
X147194000Y-69753600D01*
X143718000Y-71274600D02*
X144958000Y-71274600D01*
X143736000Y-71034600D02*
X144958000Y-71034600D01*
X146638000Y-70113600D02*
X147506000Y-70113600D01*
X144656000Y-69553600D02*
X146940000Y-69553600D01*
X146638000Y-70553600D02*
X147738000Y-70553600D01*
X146638000Y-71154600D02*
X147872000Y-71154600D01*
X144148000Y-70033600D02*
X144958000Y-70033600D01*
X144013000Y-70233600D02*
X144958000Y-70233600D01*
X144246000Y-69913600D02*
X144958000Y-69913600D01*
X143718000Y-71314600D02*
X144958000Y-71314600D01*
X144598000Y-69593600D02*
X146998000Y-69593600D01*
X146638000Y-71034600D02*
X147860000Y-71034600D01*
X146638000Y-71114600D02*
X147869000Y-71114600D01*
X144785000Y-69473600D02*
X146811000Y-69473600D01*
X146638000Y-70393600D02*
X147668000Y-70393600D01*
X146638000Y-70033600D02*
X147448000Y-70033600D01*
X143968000Y-70313600D02*
X144958000Y-70313600D01*
X145261000Y-69273600D02*
X146335000Y-69273600D01*
X143928000Y-70393600D02*
X144958000Y-70393600D01*
X144603000Y-73584401D02*
X144603000Y-73184401D01*
X146638000Y-70954600D02*
X147848000Y-70954600D01*
X143947000Y-70353600D02*
X144958000Y-70353600D01*
X146638000Y-69913600D02*
X147350000Y-69913600D01*
X146638000Y-70794600D02*
X147814000Y-70794600D01*
X143844000Y-70593600D02*
X144958000Y-70593600D01*
X144402000Y-69753600D02*
X144958000Y-69753600D01*
X144403000Y-73384401D02*
X144803000Y-73384401D01*
X143830000Y-70634600D02*
X144958000Y-70634600D01*
X143891000Y-70473600D02*
X144958000Y-70473600D01*
X146638000Y-70153600D02*
X147533000Y-70153600D01*
X143764000Y-70874600D02*
X144958000Y-70874600D01*
X144447000Y-69713600D02*
X147149000Y-69713600D01*
X146638000Y-70353600D02*
X147649000Y-70353600D01*
X144320000Y-69833600D02*
X144958000Y-69833600D01*
X144939000Y-69393600D02*
X146657000Y-69393600D01*
X143742000Y-70994600D02*
X144958000Y-70994600D01*
X144494000Y-69673600D02*
X147102000Y-69673600D01*
X143782000Y-70794600D02*
X144958000Y-70794600D01*
X146638000Y-69873600D02*
X147314000Y-69873600D01*
X143748000Y-70954600D02*
X144958000Y-70954600D01*
X146638000Y-70313600D02*
X147628000Y-70313600D01*
X143724000Y-71154600D02*
X144958000Y-71154600D01*
X143731000Y-71074600D02*
X144958000Y-71074600D01*
X143874000Y-70513600D02*
X144958000Y-70513600D01*
X146638000Y-70513600D02*
X147722000Y-70513600D01*
X143756000Y-70914600D02*
X144958000Y-70914600D01*
X143727000Y-71114600D02*
X144958000Y-71114600D01*
X146638000Y-70714600D02*
X147792000Y-70714600D01*
X144090000Y-70113600D02*
X144958000Y-70113600D01*
X146638000Y-70834600D02*
X147823000Y-70834600D01*
X143793000Y-70754600D02*
X144958000Y-70754600D01*
X143990000Y-70273600D02*
X144958000Y-70273600D01*
X146638000Y-70994600D02*
X147854000Y-70994600D01*
X146638000Y-70473600D02*
X147705000Y-70473600D01*
X143858000Y-70553600D02*
X144958000Y-70553600D01*
X143773000Y-70834600D02*
X144958000Y-70834600D01*
X146638000Y-71074600D02*
X147865000Y-71074600D01*
X146638000Y-69993600D02*
X147417000Y-69993600D01*
X146638000Y-70273600D02*
X147606000Y-70273600D01*
X146638000Y-69793600D02*
X147236000Y-69793600D01*
X143816000Y-70674600D02*
X144958000Y-70674600D01*
X146638000Y-71274600D02*
X147878000Y-71274600D01*
X146638000Y-70073600D02*
X147478000Y-70073600D01*
X146638000Y-69833600D02*
X147276000Y-69833600D01*
X143909000Y-70433600D02*
X144958000Y-70433600D01*
X147918000Y-71314600D02*
G75*
G03*
X147918000Y-71314600I-2120000J0D01*
G01*
%TO.C,C3*%
X138082000Y-72860000D02*
X138082000Y-71602000D01*
X136242000Y-72860000D02*
X136242000Y-71602000D01*
%TO.C,J7*%
X161330000Y-47140000D02*
X161330000Y-48340000D01*
X161330000Y-48340000D02*
X165330000Y-48340000D01*
X165330000Y-47140000D02*
X165330000Y-48340000D01*
X169330000Y-47140000D02*
X165330000Y-47140000D01*
X169330000Y-58640000D02*
X157330000Y-58640000D01*
X161330000Y-47140000D02*
X157330000Y-47140000D01*
%TO.C,C8*%
X150292000Y-92034401D02*
X149545000Y-92034401D01*
X150292000Y-91754401D02*
X149347000Y-91754401D01*
X152327000Y-88403600D02*
X152327000Y-88803600D01*
X153203000Y-90873401D02*
X151972000Y-90873401D01*
X153072000Y-91434401D02*
X151972000Y-91434401D01*
X150292000Y-90793401D02*
X149055000Y-90793401D01*
X152072000Y-92554401D02*
X150192000Y-92554401D01*
X153194000Y-90953401D02*
X151972000Y-90953401D01*
X152527000Y-88603600D02*
X152127000Y-88603600D01*
X150292000Y-92234401D02*
X149736000Y-92234401D01*
X152274000Y-92434401D02*
X149990000Y-92434401D01*
X152610000Y-92154401D02*
X151972000Y-92154401D01*
X150292000Y-91594401D02*
X149262000Y-91594401D01*
X152386000Y-92354401D02*
X149878000Y-92354401D01*
X152212000Y-92474401D02*
X150052000Y-92474401D01*
X152145000Y-92514401D02*
X150119000Y-92514401D01*
X150292000Y-90673401D02*
X149052000Y-90673401D01*
X150292000Y-91193401D02*
X149116000Y-91193401D01*
X152867000Y-91834401D02*
X151972000Y-91834401D01*
X152648000Y-92114401D02*
X151972000Y-92114401D01*
X150292000Y-90913401D02*
X149065000Y-90913401D01*
X153086000Y-91394401D02*
X151972000Y-91394401D01*
X150292000Y-91514401D02*
X149225000Y-91514401D01*
X150292000Y-91874401D02*
X149424000Y-91874401D01*
X153182000Y-91033401D02*
X151972000Y-91033401D01*
X153056000Y-91474401D02*
X151972000Y-91474401D01*
X150292000Y-90873401D02*
X149061000Y-90873401D01*
X150292000Y-90753401D02*
X149053000Y-90753401D01*
X151796000Y-92674401D02*
X150468000Y-92674401D01*
X150292000Y-91834401D02*
X149397000Y-91834401D01*
X150292000Y-91353401D02*
X149164000Y-91353401D01*
X150292000Y-91153401D02*
X149107000Y-91153401D01*
X151669000Y-92714401D02*
X150595000Y-92714401D01*
X150292000Y-90833401D02*
X149058000Y-90833401D01*
X152983000Y-91634401D02*
X151972000Y-91634401D01*
X150292000Y-91954401D02*
X149482000Y-91954401D01*
X153174000Y-91073401D02*
X151972000Y-91073401D01*
X151991000Y-92594401D02*
X150273000Y-92594401D01*
X153039000Y-91514401D02*
X151972000Y-91514401D01*
X150292000Y-92114401D02*
X149616000Y-92114401D01*
X150292000Y-91313401D02*
X149150000Y-91313401D01*
X150292000Y-91033401D02*
X149082000Y-91033401D01*
X150292000Y-91634401D02*
X149281000Y-91634401D01*
X150292000Y-91073401D02*
X149090000Y-91073401D01*
X153100000Y-91353401D02*
X151972000Y-91353401D01*
X153199000Y-90913401D02*
X151972000Y-90913401D01*
X152940000Y-91714401D02*
X151972000Y-91714401D01*
X150292000Y-91394401D02*
X149178000Y-91394401D01*
X150292000Y-91794401D02*
X149372000Y-91794401D01*
X153137000Y-91233401D02*
X151972000Y-91233401D01*
X152892000Y-91794401D02*
X151972000Y-91794401D01*
X153206000Y-90833401D02*
X151972000Y-90833401D01*
X153212000Y-90673401D02*
X151972000Y-90673401D01*
X150292000Y-92194401D02*
X149694000Y-92194401D01*
X153114000Y-91313401D02*
X151972000Y-91313401D01*
X150292000Y-91233401D02*
X149127000Y-91233401D01*
X153157000Y-91153401D02*
X151972000Y-91153401D01*
X150292000Y-90953401D02*
X149070000Y-90953401D01*
X150292000Y-91113401D02*
X149098000Y-91113401D01*
X153002000Y-91594401D02*
X151972000Y-91594401D01*
X153212000Y-90713401D02*
X151972000Y-90713401D01*
X150292000Y-91474401D02*
X149208000Y-91474401D01*
X152962000Y-91674401D02*
X151972000Y-91674401D01*
X153209000Y-90793401D02*
X151972000Y-90793401D01*
X150292000Y-90993401D02*
X149076000Y-90993401D01*
X150292000Y-91273401D02*
X149138000Y-91273401D01*
X152840000Y-91874401D02*
X151972000Y-91874401D01*
X152719000Y-92034401D02*
X151972000Y-92034401D01*
X150292000Y-91714401D02*
X149324000Y-91714401D01*
X152570000Y-92194401D02*
X151972000Y-92194401D01*
X150292000Y-90713401D02*
X149052000Y-90713401D01*
X151900000Y-92634401D02*
X150364000Y-92634401D01*
X150292000Y-91434401D02*
X149192000Y-91434401D01*
X153211000Y-90753401D02*
X151972000Y-90753401D01*
X152528000Y-92234401D02*
X151972000Y-92234401D01*
X152684000Y-92074401D02*
X151972000Y-92074401D01*
X152782000Y-91954401D02*
X151972000Y-91954401D01*
X152483000Y-92274401D02*
X149781000Y-92274401D01*
X150292000Y-92154401D02*
X149654000Y-92154401D01*
X150292000Y-91914401D02*
X149452000Y-91914401D01*
X152917000Y-91754401D02*
X151972000Y-91754401D01*
X153188000Y-90993401D02*
X151972000Y-90993401D01*
X150292000Y-91994401D02*
X149513000Y-91994401D01*
X153148000Y-91193401D02*
X151972000Y-91193401D01*
X152751000Y-91994401D02*
X151972000Y-91994401D01*
X152332000Y-92394401D02*
X149932000Y-92394401D01*
X153021000Y-91554401D02*
X151972000Y-91554401D01*
X150292000Y-91674401D02*
X149302000Y-91674401D01*
X153166000Y-91113401D02*
X151972000Y-91113401D01*
X153126000Y-91273401D02*
X151972000Y-91273401D01*
X150292000Y-92074401D02*
X149580000Y-92074401D01*
X150292000Y-91554401D02*
X149243000Y-91554401D01*
X152436000Y-92314401D02*
X149828000Y-92314401D01*
X151502000Y-92754401D02*
X150762000Y-92754401D01*
X152812000Y-91914401D02*
X151972000Y-91914401D01*
X153252000Y-90673401D02*
G75*
G03*
X153252000Y-90673401I-2120000J0D01*
G01*
%TO.C,C2*%
X141256000Y-91841401D02*
X140288000Y-91841401D01*
X140964000Y-92241401D02*
X140288000Y-92241401D01*
X141388000Y-91561401D02*
X140288000Y-91561401D01*
X141183000Y-91961401D02*
X140288000Y-91961401D01*
X138608000Y-91400401D02*
X137454000Y-91400401D01*
X141498000Y-91160401D02*
X140288000Y-91160401D01*
X141490000Y-91200401D02*
X140288000Y-91200401D01*
X141128000Y-92041401D02*
X140288000Y-92041401D01*
X138608000Y-91000401D02*
X137377000Y-91000401D01*
X140388000Y-92681401D02*
X138508000Y-92681401D01*
X138608000Y-92281401D02*
X137970000Y-92281401D01*
X141355000Y-91641401D02*
X140288000Y-91641401D01*
X138608000Y-91240401D02*
X137414000Y-91240401D01*
X139985000Y-92841401D02*
X138911000Y-92841401D01*
X141299000Y-91761401D02*
X140288000Y-91761401D01*
X140926000Y-92281401D02*
X140288000Y-92281401D01*
X141525000Y-90920401D02*
X140288000Y-90920401D01*
X140799000Y-92401401D02*
X138097000Y-92401401D01*
X138608000Y-91761401D02*
X137597000Y-91761401D01*
X138608000Y-90800401D02*
X137368000Y-90800401D01*
X138608000Y-91080401D02*
X137386000Y-91080401D01*
X141522000Y-90960401D02*
X140288000Y-90960401D01*
X141453000Y-91360401D02*
X140288000Y-91360401D01*
X138608000Y-91721401D02*
X137578000Y-91721401D01*
X138608000Y-91040401D02*
X137381000Y-91040401D01*
X141519000Y-91000401D02*
X140288000Y-91000401D01*
X141510000Y-91080401D02*
X140288000Y-91080401D01*
X138608000Y-92001401D02*
X137740000Y-92001401D01*
X138608000Y-91801401D02*
X137618000Y-91801401D01*
X141208000Y-91921401D02*
X140288000Y-91921401D01*
X141464000Y-91320401D02*
X140288000Y-91320401D01*
X138608000Y-91521401D02*
X137494000Y-91521401D01*
X140648000Y-92521401D02*
X138248000Y-92521401D01*
X141035000Y-92161401D02*
X140288000Y-92161401D01*
X138608000Y-92121401D02*
X137829000Y-92121401D01*
X141473000Y-91280401D02*
X140288000Y-91280401D01*
X141527000Y-90880401D02*
X140288000Y-90880401D01*
X141318000Y-91721401D02*
X140288000Y-91721401D01*
X141442000Y-91400401D02*
X140288000Y-91400401D01*
X140752000Y-92441401D02*
X138144000Y-92441401D01*
X139818000Y-92881401D02*
X139078000Y-92881401D01*
X138608000Y-92081401D02*
X137798000Y-92081401D01*
X141098000Y-92081401D02*
X140288000Y-92081401D01*
X138608000Y-91961401D02*
X137713000Y-91961401D01*
X141156000Y-92001401D02*
X140288000Y-92001401D01*
X141504000Y-91120401D02*
X140288000Y-91120401D01*
X138608000Y-91601401D02*
X137524000Y-91601401D01*
X141337000Y-91681401D02*
X140288000Y-91681401D01*
X138608000Y-91360401D02*
X137443000Y-91360401D01*
X138608000Y-91480401D02*
X137480000Y-91480401D01*
X140528000Y-92601401D02*
X138368000Y-92601401D01*
X140844000Y-92361401D02*
X140288000Y-92361401D01*
X140461000Y-92641401D02*
X138435000Y-92641401D01*
X141430000Y-91440401D02*
X140288000Y-91440401D01*
X138608000Y-91440401D02*
X137466000Y-91440401D01*
X141372000Y-91601401D02*
X140288000Y-91601401D01*
X140843000Y-88730600D02*
X140443000Y-88730600D01*
X138608000Y-92361401D02*
X138052000Y-92361401D01*
X138608000Y-90840401D02*
X137368000Y-90840401D01*
X138608000Y-91881401D02*
X137663000Y-91881401D01*
X141402000Y-91521401D02*
X140288000Y-91521401D01*
X140112000Y-92801401D02*
X138784000Y-92801401D01*
X138608000Y-92161401D02*
X137861000Y-92161401D01*
X138608000Y-92241401D02*
X137932000Y-92241401D01*
X140886000Y-92321401D02*
X140288000Y-92321401D01*
X138608000Y-91320401D02*
X137432000Y-91320401D01*
X140702000Y-92481401D02*
X138194000Y-92481401D01*
X138608000Y-91841401D02*
X137640000Y-91841401D01*
X140216000Y-92761401D02*
X138680000Y-92761401D01*
X138608000Y-92321401D02*
X138010000Y-92321401D01*
X138608000Y-91561401D02*
X137508000Y-91561401D01*
X138608000Y-91200401D02*
X137406000Y-91200401D01*
X141416000Y-91480401D02*
X140288000Y-91480401D01*
X141515000Y-91040401D02*
X140288000Y-91040401D01*
X138608000Y-92041401D02*
X137768000Y-92041401D01*
X138608000Y-92201401D02*
X137896000Y-92201401D01*
X138608000Y-91120401D02*
X137392000Y-91120401D01*
X141233000Y-91881401D02*
X140288000Y-91881401D01*
X138608000Y-91921401D02*
X137688000Y-91921401D01*
X141482000Y-91240401D02*
X140288000Y-91240401D01*
X141528000Y-90800401D02*
X140288000Y-90800401D01*
X138608000Y-90920401D02*
X137371000Y-90920401D01*
X140643000Y-88530600D02*
X140643000Y-88930600D01*
X140307000Y-92721401D02*
X138589000Y-92721401D01*
X138608000Y-91681401D02*
X137559000Y-91681401D01*
X138608000Y-91160401D02*
X137398000Y-91160401D01*
X141278000Y-91801401D02*
X140288000Y-91801401D01*
X138608000Y-91280401D02*
X137423000Y-91280401D01*
X141000000Y-92201401D02*
X140288000Y-92201401D01*
X140590000Y-92561401D02*
X138306000Y-92561401D01*
X138608000Y-90960401D02*
X137374000Y-90960401D01*
X138608000Y-90880401D02*
X137369000Y-90880401D01*
X138608000Y-91641401D02*
X137541000Y-91641401D01*
X141528000Y-90840401D02*
X140288000Y-90840401D01*
X141067000Y-92121401D02*
X140288000Y-92121401D01*
X141568000Y-90800401D02*
G75*
G03*
X141568000Y-90800401I-2120000J0D01*
G01*
D13*
%TO.C,J6*%
X175405000Y-71080000D02*
X175405000Y-71080000D01*
X193605000Y-68480000D02*
X193605000Y-68480000D01*
X193605000Y-68480000D02*
X193605000Y-71080000D01*
X175405000Y-71080000D02*
X193605000Y-71080000D01*
X175390000Y-47080000D02*
X175390000Y-47080000D01*
X193605000Y-71080000D02*
X193605000Y-71080000D01*
X175405000Y-71080000D02*
X175405000Y-71080000D01*
X193605000Y-49430000D02*
X193605000Y-49430000D01*
X175405000Y-68480000D02*
X175405000Y-68480000D01*
X175405000Y-68480000D02*
X175405000Y-71080000D01*
X175390000Y-49930000D02*
X175390000Y-47080000D01*
D12*
X174190000Y-51430000D02*
X174190000Y-51430000D01*
D13*
X175405000Y-47080000D02*
X175405000Y-47080000D01*
D12*
X174190000Y-51330000D02*
X174190000Y-51330000D01*
D13*
X193605000Y-47080000D02*
X175405000Y-47080000D01*
X193605000Y-71080000D02*
X193605000Y-71080000D01*
X193605000Y-47080000D02*
X193605000Y-49430000D01*
X193605000Y-71080000D02*
X175405000Y-71080000D01*
X175405000Y-71080000D02*
X175405000Y-68480000D01*
X175405000Y-47080000D02*
X193605000Y-47080000D01*
X193605000Y-49430000D02*
X193605000Y-47080000D01*
X193605000Y-47080000D02*
X193605000Y-47080000D01*
X193605000Y-71080000D02*
X193605000Y-68480000D01*
X175390000Y-49930000D02*
X175390000Y-49930000D01*
D12*
X174190000Y-51430000D02*
X174190000Y-51430000D01*
D13*
X193605000Y-47080000D02*
X193605000Y-47080000D01*
X175390000Y-47080000D02*
X175390000Y-49930000D01*
D12*
X174190000Y-51430000D02*
G75*
G02*
X174190000Y-51330000I0J50000D01*
G01*
X174190000Y-51330000D02*
G75*
G02*
X174190000Y-51430000I0J-50000D01*
G01*
X174190000Y-51330000D02*
G75*
G02*
X174190000Y-51430000I0J-50000D01*
G01*
D10*
%TO.C,C7*%
X144704000Y-90713401D02*
X143464000Y-90713401D01*
X144704000Y-91273401D02*
X143550000Y-91273401D01*
X144704000Y-90913401D02*
X143477000Y-90913401D01*
X146848000Y-92314401D02*
X144240000Y-92314401D01*
X144704000Y-91233401D02*
X143539000Y-91233401D01*
X146982000Y-92194401D02*
X146384000Y-92194401D01*
X144704000Y-91313401D02*
X143562000Y-91313401D01*
X147600000Y-90993401D02*
X146384000Y-90993401D01*
X147484000Y-91434401D02*
X146384000Y-91434401D01*
X147395000Y-91634401D02*
X146384000Y-91634401D01*
X147624000Y-90673401D02*
X146384000Y-90673401D01*
X145914000Y-92754401D02*
X145174000Y-92754401D01*
X146940000Y-92234401D02*
X146384000Y-92234401D01*
X144704000Y-91834401D02*
X143809000Y-91834401D01*
X147224000Y-91914401D02*
X146384000Y-91914401D01*
X147606000Y-90953401D02*
X146384000Y-90953401D01*
X147279000Y-91834401D02*
X146384000Y-91834401D01*
X144704000Y-92154401D02*
X144066000Y-92154401D01*
X144704000Y-90673401D02*
X143464000Y-90673401D01*
X144704000Y-90753401D02*
X143465000Y-90753401D01*
X144704000Y-90833401D02*
X143470000Y-90833401D01*
X147131000Y-92034401D02*
X146384000Y-92034401D01*
X147498000Y-91394401D02*
X146384000Y-91394401D01*
X147549000Y-91233401D02*
X146384000Y-91233401D01*
X144704000Y-91153401D02*
X143519000Y-91153401D01*
X146081000Y-92714401D02*
X145007000Y-92714401D01*
X147304000Y-91794401D02*
X146384000Y-91794401D01*
X147624000Y-90713401D02*
X146384000Y-90713401D01*
X146739000Y-88403600D02*
X146739000Y-88803600D01*
X144704000Y-92194401D02*
X144106000Y-92194401D01*
X144704000Y-91754401D02*
X143759000Y-91754401D01*
X146939000Y-88603600D02*
X146539000Y-88603600D01*
X147611000Y-90913401D02*
X146384000Y-90913401D01*
X147618000Y-90833401D02*
X146384000Y-90833401D01*
X146798000Y-92354401D02*
X144290000Y-92354401D01*
X147526000Y-91313401D02*
X146384000Y-91313401D01*
X147352000Y-91714401D02*
X146384000Y-91714401D01*
X147022000Y-92154401D02*
X146384000Y-92154401D01*
X144704000Y-91073401D02*
X143502000Y-91073401D01*
X144704000Y-91434401D02*
X143604000Y-91434401D01*
X144704000Y-91634401D02*
X143693000Y-91634401D01*
X147163000Y-91994401D02*
X146384000Y-91994401D01*
X147586000Y-91073401D02*
X146384000Y-91073401D01*
X144704000Y-92114401D02*
X144028000Y-92114401D01*
X146624000Y-92474401D02*
X144464000Y-92474401D01*
X147414000Y-91594401D02*
X146384000Y-91594401D01*
X146744000Y-92394401D02*
X144344000Y-92394401D01*
X146403000Y-92594401D02*
X144685000Y-92594401D01*
X146895000Y-92274401D02*
X144193000Y-92274401D01*
X147468000Y-91474401D02*
X146384000Y-91474401D01*
X144704000Y-91474401D02*
X143620000Y-91474401D01*
X144704000Y-91714401D02*
X143736000Y-91714401D01*
X144704000Y-91554401D02*
X143655000Y-91554401D01*
X144704000Y-92234401D02*
X144148000Y-92234401D01*
X147252000Y-91874401D02*
X146384000Y-91874401D01*
X147096000Y-92074401D02*
X146384000Y-92074401D01*
X144704000Y-90993401D02*
X143488000Y-90993401D01*
X147374000Y-91674401D02*
X146384000Y-91674401D01*
X144704000Y-91874401D02*
X143836000Y-91874401D01*
X144704000Y-91954401D02*
X143894000Y-91954401D01*
X147433000Y-91554401D02*
X146384000Y-91554401D01*
X147594000Y-91033401D02*
X146384000Y-91033401D01*
X147621000Y-90793401D02*
X146384000Y-90793401D01*
X147538000Y-91273401D02*
X146384000Y-91273401D01*
X147615000Y-90873401D02*
X146384000Y-90873401D01*
X144704000Y-91353401D02*
X143576000Y-91353401D01*
X144704000Y-91594401D02*
X143674000Y-91594401D01*
X144704000Y-90793401D02*
X143467000Y-90793401D01*
X146208000Y-92674401D02*
X144880000Y-92674401D01*
X146686000Y-92434401D02*
X144402000Y-92434401D01*
X147560000Y-91193401D02*
X146384000Y-91193401D01*
X144704000Y-91514401D02*
X143637000Y-91514401D01*
X146557000Y-92514401D02*
X144531000Y-92514401D01*
X144704000Y-91994401D02*
X143925000Y-91994401D01*
X147194000Y-91954401D02*
X146384000Y-91954401D01*
X146484000Y-92554401D02*
X144604000Y-92554401D01*
X144704000Y-91113401D02*
X143510000Y-91113401D01*
X144704000Y-90873401D02*
X143473000Y-90873401D01*
X144704000Y-91193401D02*
X143528000Y-91193401D01*
X147623000Y-90753401D02*
X146384000Y-90753401D01*
X144704000Y-90953401D02*
X143482000Y-90953401D01*
X144704000Y-91033401D02*
X143494000Y-91033401D01*
X147512000Y-91353401D02*
X146384000Y-91353401D01*
X144704000Y-92034401D02*
X143957000Y-92034401D01*
X144704000Y-91674401D02*
X143714000Y-91674401D01*
X144704000Y-91394401D02*
X143590000Y-91394401D01*
X146312000Y-92634401D02*
X144776000Y-92634401D01*
X147578000Y-91113401D02*
X146384000Y-91113401D01*
X144704000Y-91914401D02*
X143864000Y-91914401D01*
X144704000Y-92074401D02*
X143992000Y-92074401D01*
X144704000Y-91794401D02*
X143784000Y-91794401D01*
X147060000Y-92114401D02*
X146384000Y-92114401D01*
X147569000Y-91153401D02*
X146384000Y-91153401D01*
X147329000Y-91754401D02*
X146384000Y-91754401D01*
X147451000Y-91514401D02*
X146384000Y-91514401D01*
X147664000Y-90673401D02*
G75*
G03*
X147664000Y-90673401I-2120000J0D01*
G01*
%TO.C,C5*%
X148205000Y-96203000D02*
X146947000Y-96203000D01*
X148205000Y-98043000D02*
X146947000Y-98043000D01*
%TO.C,C6*%
X154301000Y-96203000D02*
X153043000Y-96203000D01*
X154301000Y-98043000D02*
X153043000Y-98043000D01*
%TO.C,C10*%
X150306000Y-69513600D02*
X152466000Y-69513600D01*
X149344000Y-70914600D02*
X150546000Y-70914600D01*
X149315000Y-71114600D02*
X150546000Y-71114600D01*
X149870000Y-69873600D02*
X150546000Y-69873600D01*
X152226000Y-70193600D02*
X153146000Y-70193600D01*
X152226000Y-70914600D02*
X153428000Y-70914600D01*
X149361000Y-70834600D02*
X150546000Y-70834600D01*
X149418000Y-70634600D02*
X150546000Y-70634600D01*
X150082000Y-69673600D02*
X152690000Y-69673600D01*
X149392000Y-70714600D02*
X150546000Y-70714600D01*
X152226000Y-71074600D02*
X153453000Y-71074600D01*
X149479000Y-70473600D02*
X150546000Y-70473600D01*
X152226000Y-70674600D02*
X153368000Y-70674600D01*
X149556000Y-70313600D02*
X150546000Y-70313600D01*
X149990000Y-69753600D02*
X150546000Y-69753600D01*
X152226000Y-69793600D02*
X152824000Y-69793600D01*
X152226000Y-70073600D02*
X153066000Y-70073600D01*
X152226000Y-70313600D02*
X153216000Y-70313600D01*
X149319000Y-71074600D02*
X150546000Y-71074600D01*
X152226000Y-70393600D02*
X153256000Y-70393600D01*
X152226000Y-70634600D02*
X153354000Y-70634600D01*
X150446000Y-69433600D02*
X152326000Y-69433600D01*
X152226000Y-71314600D02*
X153466000Y-71314600D01*
X149462000Y-70513600D02*
X150546000Y-70513600D01*
X149991000Y-73384401D02*
X150391000Y-73384401D01*
X152226000Y-71234600D02*
X153465000Y-71234600D01*
X152226000Y-71194600D02*
X153463000Y-71194600D01*
X149336000Y-70954600D02*
X150546000Y-70954600D01*
X149307000Y-71234600D02*
X150546000Y-71234600D01*
X152226000Y-70994600D02*
X153442000Y-70994600D01*
X149948000Y-69793600D02*
X150546000Y-69793600D01*
X152226000Y-71114600D02*
X153457000Y-71114600D01*
X150186000Y-69593600D02*
X152586000Y-69593600D01*
X149799000Y-69953600D02*
X150546000Y-69953600D01*
X152226000Y-70714600D02*
X153380000Y-70714600D01*
X149736000Y-70033600D02*
X150546000Y-70033600D01*
X152226000Y-69913600D02*
X152938000Y-69913600D01*
X149306000Y-71314600D02*
X150546000Y-71314600D01*
X152226000Y-70593600D02*
X153340000Y-70593600D01*
X151016000Y-69233600D02*
X151756000Y-69233600D01*
X149352000Y-70874600D02*
X150546000Y-70874600D01*
X152226000Y-71034600D02*
X153448000Y-71034600D01*
X152226000Y-70513600D02*
X153310000Y-70513600D01*
X152226000Y-70113600D02*
X153094000Y-70113600D01*
X149309000Y-71194600D02*
X150546000Y-71194600D01*
X149601000Y-70233600D02*
X150546000Y-70233600D01*
X152226000Y-70473600D02*
X153293000Y-70473600D01*
X152226000Y-70153600D02*
X153121000Y-70153600D01*
X149404000Y-70674600D02*
X150546000Y-70674600D01*
X149324000Y-71034600D02*
X150546000Y-71034600D01*
X152226000Y-71274600D02*
X153466000Y-71274600D01*
X149370000Y-70794600D02*
X150546000Y-70794600D01*
X149651000Y-70153600D02*
X150546000Y-70153600D01*
X152226000Y-70834600D02*
X153411000Y-70834600D01*
X149767000Y-69993600D02*
X150546000Y-69993600D01*
X149706000Y-70073600D02*
X150546000Y-70073600D01*
X152226000Y-70754600D02*
X153391000Y-70754600D01*
X152226000Y-70353600D02*
X153237000Y-70353600D01*
X149432000Y-70593600D02*
X150546000Y-70593600D01*
X152226000Y-69993600D02*
X153005000Y-69993600D01*
X152226000Y-69833600D02*
X152864000Y-69833600D01*
X149578000Y-70273600D02*
X150546000Y-70273600D01*
X149312000Y-71154600D02*
X150546000Y-71154600D01*
X149834000Y-69913600D02*
X150546000Y-69913600D01*
X149908000Y-69833600D02*
X150546000Y-69833600D01*
X149306000Y-71274600D02*
X150546000Y-71274600D01*
X150527000Y-69393600D02*
X152245000Y-69393600D01*
X152226000Y-70874600D02*
X153420000Y-70874600D01*
X152226000Y-69753600D02*
X152782000Y-69753600D01*
X150618000Y-69353600D02*
X152154000Y-69353600D01*
X149516000Y-70393600D02*
X150546000Y-70393600D01*
X152226000Y-70794600D02*
X153402000Y-70794600D01*
X152226000Y-70433600D02*
X153275000Y-70433600D01*
X149626000Y-70193600D02*
X150546000Y-70193600D01*
X152226000Y-70954600D02*
X153436000Y-70954600D01*
X150373000Y-69473600D02*
X152399000Y-69473600D01*
X150722000Y-69313600D02*
X152050000Y-69313600D01*
X152226000Y-69953600D02*
X152973000Y-69953600D01*
X149678000Y-70113600D02*
X150546000Y-70113600D01*
X152226000Y-71154600D02*
X153460000Y-71154600D01*
X152226000Y-70273600D02*
X153194000Y-70273600D01*
X152226000Y-69873600D02*
X152902000Y-69873600D01*
X149446000Y-70553600D02*
X150546000Y-70553600D01*
X150035000Y-69713600D02*
X152737000Y-69713600D01*
X150244000Y-69553600D02*
X152528000Y-69553600D01*
X152226000Y-70033600D02*
X153036000Y-70033600D01*
X152226000Y-70233600D02*
X153171000Y-70233600D01*
X150191000Y-73584401D02*
X150191000Y-73184401D01*
X150849000Y-69273600D02*
X151923000Y-69273600D01*
X149497000Y-70433600D02*
X150546000Y-70433600D01*
X152226000Y-70553600D02*
X153326000Y-70553600D01*
X150132000Y-69633600D02*
X152640000Y-69633600D01*
X149381000Y-70754600D02*
X150546000Y-70754600D01*
X149330000Y-70994600D02*
X150546000Y-70994600D01*
X149535000Y-70353600D02*
X150546000Y-70353600D01*
X153506000Y-71314600D02*
G75*
G03*
X153506000Y-71314600I-2120000J0D01*
G01*
%TO.C,U2*%
X174256000Y-81005000D02*
X174256000Y-79205000D01*
X171036000Y-79205000D02*
X171036000Y-82155000D01*
%TD*%
M02*
