%TF.GenerationSoftware,KiCad,Pcbnew,(5.99.0-11640-gb6664eecf2)*%
%TF.CreationDate,2021-09-02T00:48:37+05:30*%
%TF.ProjectId,AudioInterface,41756469-6f49-46e7-9465-72666163652e,rev?*%
%TF.SameCoordinates,Original*%
%TF.FileFunction,Soldermask,Bot*%
%TF.FilePolarity,Negative*%
%FSLAX46Y46*%
G04 Gerber Fmt 4.6, Leading zero omitted, Abs format (unit mm)*
G04 Created by KiCad (PCBNEW (5.99.0-11640-gb6664eecf2)) date 2021-09-02 00:48:37*
%MOMM*%
%LPD*%
G01*
G04 APERTURE LIST*
G04 Aperture macros list*
%AMRoundRect*
0 Rectangle with rounded corners*
0 $1 Rounding radius*
0 $2 $3 $4 $5 $6 $7 $8 $9 X,Y pos of 4 corners*
0 Add a 4 corners polygon primitive as box body*
4,1,4,$2,$3,$4,$5,$6,$7,$8,$9,$2,$3,0*
0 Add four circle primitives for the rounded corners*
1,1,$1+$1,$2,$3*
1,1,$1+$1,$4,$5*
1,1,$1+$1,$6,$7*
1,1,$1+$1,$8,$9*
0 Add four rect primitives between the rounded corners*
20,1,$1+$1,$2,$3,$4,$5,0*
20,1,$1+$1,$4,$5,$6,$7,0*
20,1,$1+$1,$6,$7,$8,$9,0*
20,1,$1+$1,$8,$9,$2,$3,0*%
G04 Aperture macros list end*
%ADD10C,2.240000*%
%ADD11RoundRect,0.120000X-0.850000X-0.850000X0.850000X-0.850000X0.850000X0.850000X-0.850000X0.850000X0*%
%ADD12O,1.940000X1.940000*%
%ADD13C,2.340000*%
%ADD14C,1.840000*%
%ADD15C,1.740000*%
%ADD16C,1.440000*%
%ADD17C,2.040000*%
%ADD18C,3.240000*%
%ADD19RoundRect,0.120000X0.600000X-0.600000X0.600000X0.600000X-0.600000X0.600000X-0.600000X-0.600000X0*%
%ADD20RoundRect,0.120000X-0.600000X0.600000X-0.600000X-0.600000X0.600000X-0.600000X0.600000X0.600000X0*%
%ADD21RoundRect,0.370000X0.325000X0.450000X-0.325000X0.450000X-0.325000X-0.450000X0.325000X-0.450000X0*%
%ADD22RoundRect,0.370000X-0.450000X0.325000X-0.450000X-0.325000X0.450000X-0.325000X0.450000X0.325000X0*%
%ADD23RoundRect,0.370000X-0.325000X-0.450000X0.325000X-0.450000X0.325000X0.450000X-0.325000X0.450000X0*%
%ADD24RoundRect,0.370000X0.450000X-0.325000X0.450000X0.325000X-0.450000X0.325000X-0.450000X-0.325000X0*%
G04 APERTURE END LIST*
D10*
%TO.C,J4*%
X153265000Y-57930000D03*
X153265000Y-52930000D03*
X149455000Y-57930000D03*
X149455000Y-52930000D03*
X145645000Y-52930000D03*
X145645000Y-57930000D03*
%TD*%
D11*
%TO.C,J8*%
X137162000Y-48990000D03*
D12*
X137162000Y-51530000D03*
X137162000Y-54070000D03*
X137162000Y-56610000D03*
X137162000Y-59150000D03*
X137162000Y-61690000D03*
X137162000Y-64230000D03*
X137162000Y-66770000D03*
%TD*%
D13*
%TO.C,J2*%
X192720000Y-88990000D03*
X176490000Y-88990000D03*
X192720000Y-95340000D03*
X176490000Y-95340000D03*
X192720000Y-82640000D03*
X176490000Y-82640000D03*
%TD*%
D14*
%TO.C,C12*%
X168308000Y-60674000D03*
X165808000Y-60674000D03*
%TD*%
%TO.C,C11*%
X158264000Y-60674000D03*
X160764000Y-60674000D03*
%TD*%
D15*
%TO.C,Y1*%
X139448000Y-79687000D03*
X139448000Y-84587000D03*
%TD*%
D14*
%TO.C,C4*%
X139448000Y-70981000D03*
X139448000Y-73481000D03*
%TD*%
D13*
%TO.C,J5*%
X199250000Y-57780000D03*
X215480000Y-57780000D03*
X199250000Y-51430000D03*
X215480000Y-51430000D03*
X199250000Y-64130000D03*
X215480000Y-64130000D03*
%TD*%
D16*
%TO.C,J3*%
X168075000Y-95290000D03*
X163075000Y-90290000D03*
X158075000Y-95290000D03*
X158075000Y-97790000D03*
X168075000Y-97790000D03*
D17*
X158075000Y-90290000D03*
X160575000Y-90290000D03*
X163075000Y-95290000D03*
X168075000Y-90290000D03*
X165575000Y-90290000D03*
%TD*%
D13*
%TO.C,J1*%
X215580000Y-88990000D03*
X199350000Y-88990000D03*
X215580000Y-95340000D03*
X199350000Y-95340000D03*
X215580000Y-82640000D03*
X199350000Y-82640000D03*
%TD*%
D14*
%TO.C,C1*%
X143142000Y-97123000D03*
X138142000Y-97123000D03*
%TD*%
D18*
%TO.C,RV1*%
X156562000Y-74599000D03*
X168562000Y-74599000D03*
D15*
X161562000Y-85599000D03*
X163562000Y-85599000D03*
X165562000Y-85599000D03*
X159562000Y-85599000D03*
X157562000Y-85599000D03*
X167562000Y-85599000D03*
%TD*%
D19*
%TO.C,C9*%
X145798000Y-72064600D03*
D16*
X145798000Y-70564600D03*
%TD*%
D14*
%TO.C,C3*%
X137162000Y-73481000D03*
X137162000Y-70981000D03*
%TD*%
D16*
%TO.C,J7*%
X168330000Y-49140000D03*
X158330000Y-51640000D03*
X168330000Y-51640000D03*
X163330000Y-56640000D03*
X158330000Y-49140000D03*
D17*
X168330000Y-56640000D03*
X165830000Y-56640000D03*
X163330000Y-51640000D03*
X158330000Y-56640000D03*
X160830000Y-56640000D03*
%TD*%
D20*
%TO.C,C8*%
X151132000Y-89923401D03*
D16*
X151132000Y-91423401D03*
%TD*%
D20*
%TO.C,C2*%
X139448000Y-90050401D03*
D16*
X139448000Y-91550401D03*
%TD*%
D13*
%TO.C,J6*%
X176390000Y-57780000D03*
X192620000Y-57780000D03*
X176390000Y-51430000D03*
X192620000Y-51430000D03*
X176390000Y-64130000D03*
X192620000Y-64130000D03*
%TD*%
D20*
%TO.C,C7*%
X145544000Y-89923401D03*
D16*
X145544000Y-91423401D03*
%TD*%
D14*
%TO.C,C5*%
X148826000Y-97123000D03*
X146326000Y-97123000D03*
%TD*%
%TO.C,C6*%
X154922000Y-97123000D03*
X152422000Y-97123000D03*
%TD*%
D19*
%TO.C,C10*%
X151386000Y-72064600D03*
D16*
X151386000Y-70564600D03*
%TD*%
D21*
%TO.C,R7*%
X166635000Y-78581000D03*
X164585000Y-78581000D03*
%TD*%
D22*
%TO.C,R6*%
X205869000Y-81493000D03*
X205869000Y-83543000D03*
%TD*%
D21*
%TO.C,R3*%
X166635000Y-69437000D03*
X164585000Y-69437000D03*
%TD*%
D23*
%TO.C,R12*%
X150361000Y-66262000D03*
X152411000Y-66262000D03*
%TD*%
%TO.C,R11*%
X144773000Y-66262000D03*
X146823000Y-66262000D03*
%TD*%
%TO.C,R14*%
X150361000Y-63341000D03*
X152411000Y-63341000D03*
%TD*%
D24*
%TO.C,R17*%
X208790000Y-65255000D03*
X208790000Y-63205000D03*
%TD*%
D21*
%TO.C,R4*%
X160539000Y-69437000D03*
X158489000Y-69437000D03*
%TD*%
D23*
%TO.C,R13*%
X144773000Y-63341000D03*
X146823000Y-63341000D03*
%TD*%
%TO.C,R9*%
X158489000Y-78581000D03*
X160539000Y-78581000D03*
%TD*%
D21*
%TO.C,R8*%
X166635000Y-81756000D03*
X164585000Y-81756000D03*
%TD*%
D22*
%TO.C,R5*%
X183136000Y-81493000D03*
X183136000Y-83543000D03*
%TD*%
D24*
%TO.C,R1*%
X209044000Y-83543000D03*
X209044000Y-81493000D03*
%TD*%
D22*
%TO.C,R15*%
X205742000Y-63205000D03*
X205742000Y-65255000D03*
%TD*%
%TO.C,R16*%
X185930000Y-63205000D03*
X185930000Y-65255000D03*
%TD*%
D24*
%TO.C,R18*%
X182882000Y-65255000D03*
X182882000Y-63205000D03*
%TD*%
D23*
%TO.C,R10*%
X158489000Y-81756000D03*
X160539000Y-81756000D03*
%TD*%
D24*
%TO.C,R2*%
X186311000Y-83543000D03*
X186311000Y-81493000D03*
%TD*%
G36*
X139738459Y-90769401D02*
G01*
X139738459Y-90771401D01*
X139737492Y-90772249D01*
X139695834Y-90789504D01*
X139678895Y-90830399D01*
X139695908Y-90871473D01*
X139716233Y-90884321D01*
X139717162Y-90886092D01*
X139716094Y-90887783D01*
X139714493Y-90887896D01*
X139611954Y-90851384D01*
X139453012Y-90832432D01*
X139293823Y-90849163D01*
X139178429Y-90888446D01*
X139176467Y-90888058D01*
X139175822Y-90886165D01*
X139176464Y-90885050D01*
X139209606Y-90855934D01*
X139212464Y-90811763D01*
X139183126Y-90778368D01*
X139157262Y-90772349D01*
X139155801Y-90770982D01*
X139156255Y-90769034D01*
X139157715Y-90768401D01*
X139736727Y-90768401D01*
X139738459Y-90769401D01*
G37*
G36*
X151422459Y-90642401D02*
G01*
X151422459Y-90644401D01*
X151421492Y-90645249D01*
X151379834Y-90662504D01*
X151362895Y-90703399D01*
X151379908Y-90744473D01*
X151400233Y-90757321D01*
X151401162Y-90759092D01*
X151400094Y-90760783D01*
X151398493Y-90760896D01*
X151295954Y-90724384D01*
X151137012Y-90705432D01*
X150977823Y-90722163D01*
X150862429Y-90761446D01*
X150860467Y-90761058D01*
X150859822Y-90759165D01*
X150860464Y-90758050D01*
X150893606Y-90728934D01*
X150896464Y-90684763D01*
X150867126Y-90651368D01*
X150841262Y-90645349D01*
X150839801Y-90643982D01*
X150840255Y-90642034D01*
X150841715Y-90641401D01*
X151420727Y-90641401D01*
X151422459Y-90642401D01*
G37*
G36*
X145834459Y-90642401D02*
G01*
X145834459Y-90644401D01*
X145833492Y-90645249D01*
X145791834Y-90662504D01*
X145774895Y-90703399D01*
X145791908Y-90744473D01*
X145812233Y-90757321D01*
X145813162Y-90759092D01*
X145812094Y-90760783D01*
X145810493Y-90760896D01*
X145707954Y-90724384D01*
X145549012Y-90705432D01*
X145389823Y-90722163D01*
X145274429Y-90761446D01*
X145272467Y-90761058D01*
X145271822Y-90759165D01*
X145272464Y-90758050D01*
X145305606Y-90728934D01*
X145308464Y-90684763D01*
X145279126Y-90651368D01*
X145253262Y-90645349D01*
X145251801Y-90643982D01*
X145252255Y-90642034D01*
X145253715Y-90641401D01*
X145832727Y-90641401D01*
X145834459Y-90642401D01*
G37*
G36*
X151660518Y-71226687D02*
G01*
X151661136Y-71228589D01*
X151660479Y-71229694D01*
X151626932Y-71258345D01*
X151623460Y-71302473D01*
X151652323Y-71336268D01*
X151678930Y-71342655D01*
X151680381Y-71344032D01*
X151679914Y-71345977D01*
X151678463Y-71346600D01*
X151098275Y-71346600D01*
X151096543Y-71345600D01*
X151096543Y-71343600D01*
X151097510Y-71342752D01*
X151139168Y-71325497D01*
X151156107Y-71284602D01*
X151139091Y-71243520D01*
X151119583Y-71230997D01*
X151118665Y-71229220D01*
X151119746Y-71227537D01*
X151121360Y-71227439D01*
X151212306Y-71261261D01*
X151370961Y-71282430D01*
X151530373Y-71267922D01*
X151658562Y-71226271D01*
X151660518Y-71226687D01*
G37*
G36*
X146072518Y-71226687D02*
G01*
X146073136Y-71228589D01*
X146072479Y-71229694D01*
X146038932Y-71258345D01*
X146035460Y-71302473D01*
X146064323Y-71336268D01*
X146090930Y-71342655D01*
X146092381Y-71344032D01*
X146091914Y-71345977D01*
X146090463Y-71346600D01*
X145510275Y-71346600D01*
X145508543Y-71345600D01*
X145508543Y-71343600D01*
X145509510Y-71342752D01*
X145551168Y-71325497D01*
X145568107Y-71284602D01*
X145551091Y-71243520D01*
X145531583Y-71230997D01*
X145530665Y-71229220D01*
X145531746Y-71227537D01*
X145533360Y-71227439D01*
X145624306Y-71261261D01*
X145782961Y-71282430D01*
X145942373Y-71267922D01*
X146070562Y-71226271D01*
X146072518Y-71226687D01*
G37*
M02*
